<svg version="1.1" viewBox="0.0 0.0 958.7664041994751 662.5538057742782" fill="none" stroke="none" stroke-linecap="square" stroke-miterlimit="10" xmlns:xlink="http://www.w3.org/1999/xlink" xmlns="http://www.w3.org/2000/svg"><clipPath id="p.0"><path d="m0 0l958.7664 0l0 662.55383l-958.7664 0l0 -662.55383z" clip-rule="nonzero"/></clipPath><g clip-path="url(#p.0)"><path fill="#000000" fill-opacity="0.0" d="m0 0l958.7664 0l0 662.55383l-958.7664 0z" fill-rule="evenodd"/><defs><linearGradient id="p.1" gradientUnits="userSpaceOnUse" gradientTransform="matrix(33.931842014642704 0.0 0.0 33.931842014642704 0.0 0.0)" spreadMethod="pad" x1="-9.827094648159955" y1="9.824378892542816" x2="14.166297428401704" y2="33.817857989311165"><stop offset="0.0" stop-color="#273746"/><stop offset="1.0" stop-color="#17202a"/></linearGradient></defs><path fill="url(#p.1)" d="m1.3674695 -1.458407l958.6456 0l0 669.6378l-958.6456 0z" fill-rule="evenodd"/><path stroke="#000000" stroke-width="1.0" stroke-linejoin="round" stroke-linecap="butt" d="m1.3674695 -1.458407l958.6456 0l0 669.6378l-958.6456 0z" fill-rule="evenodd"/><path fill="#000000" fill-opacity="0.0" d="m-25.33071 33.91076l64.89764 -47.480312l1.6535454 90.220474z" fill-rule="evenodd"/><path stroke="#efefef" stroke-width="2.0" stroke-linejoin="round" stroke-linecap="butt" d="m-25.33071 33.91076l64.89764 -47.480312l1.6535454 90.220474z" fill-rule="evenodd"/><path fill="#000000" fill-opacity="0.0" d="m106.09321 360.34476l2.3622055 78.89761l-61.385826 -31.149597z" fill-rule="evenodd"/><path stroke="#efefef" stroke-width="2.0" stroke-linejoin="round" stroke-linecap="butt" d="m106.09321 360.34476l2.3622055 78.89761l-61.385826 -31.149597z" fill-rule="evenodd"/><path fill="#000000" fill-opacity="0.0" d="m18.353085 20.243658l53.13386 -20.15748l-17.102367 62.866142z" fill-rule="evenodd"/><path stroke="#efefef" stroke-width="2.0" stroke-linejoin="round" stroke-linecap="butt" d="m18.353085 20.243658l53.13386 -20.15748l-17.102367 62.866142z" fill-rule="evenodd"/><path fill="#000000" fill-opacity="0.0" d="m474.07147 51.59909l46.15747 25.07087l-42.409454 33.196846z" fill-rule="evenodd"/><path stroke="#efefef" stroke-width="2.0" stroke-linejoin="round" stroke-linecap="butt" d="m474.07147 51.59909l46.15747 25.07087l-42.409454 33.196846z" fill-rule="evenodd"/><path fill="#000000" fill-opacity="0.0" d="m400.13663 270.94952l-1.9054871 37.7323l-28.740173 -16.566956z" fill-rule="evenodd"/><path stroke="#efefef" stroke-width="2.0" stroke-linejoin="round" stroke-linecap="butt" d="m400.13663 270.94952l-1.9054871 37.7323l-28.740173 -16.566956z" fill-rule="evenodd"/><path fill="#000000" fill-opacity="0.0" d="m892.44354 658.44794l64.897644 -47.480347l1.6535645 90.22052z" fill-rule="evenodd"/><path stroke="#efefef" stroke-width="2.0" stroke-linejoin="round" stroke-linecap="butt" d="m892.44354 658.44794l64.897644 -47.480347l1.6535645 90.22052z" fill-rule="evenodd"/><path fill="#000000" fill-opacity="0.0" d="m919.46594 604.8854l53.13385 -20.15747l-17.102356 62.86615z" fill-rule="evenodd"/><path stroke="#efefef" stroke-width="2.0" stroke-linejoin="round" stroke-linecap="butt" d="m919.46594 604.8854l53.13385 -20.15747l-17.102356 62.86615z" fill-rule="evenodd"/><path fill="#000000" fill-opacity="0.0" d="m582.1324 572.6286l42.22046 29.433044l-42.251953 29.433105z" fill-rule="evenodd"/><path stroke="#efefef" stroke-width="2.0" stroke-linejoin="round" stroke-linecap="butt" d="m582.1324 572.6286l42.22046 29.433044l-42.251953 29.433105z" fill-rule="evenodd"/><path fill="#000000" fill-opacity="0.0" d="m757.0473 166.18752l1.5747681 60.7874l-44.094482 -31.43306z" fill-rule="evenodd"/><path stroke="#efefef" stroke-width="2.0" stroke-linejoin="round" stroke-linecap="butt" d="m757.0473 166.18752l1.5747681 60.7874l-44.094482 -31.43306z" fill-rule="evenodd"/><path fill="#000000" fill-opacity="0.0" d="m264.41235 658.163l-31.480316 -6.3464355l17.02362 -31.984253z" fill-rule="evenodd"/><path stroke="#efefef" stroke-width="2.0" stroke-linejoin="round" stroke-linecap="butt" d="m264.41235 658.163l-31.480316 -6.3464355l17.02362 -31.984253z" fill-rule="evenodd"/><path fill="#000000" fill-opacity="0.0" d="m883.3927 59.66558l59.259827 36.362206l-53.118103 47.889755z" fill-rule="evenodd"/><path stroke="#efefef" stroke-width="2.0" stroke-linejoin="round" stroke-linecap="butt" d="m883.3927 59.66558l59.259827 36.362206l-53.118103 47.889755z" fill-rule="evenodd"/><path fill="#000000" fill-opacity="0.0" d="m862.3862 465.7456l-38.346436 39.40158l-8.047241 -59.433075z" fill-rule="evenodd"/><path stroke="#efefef" stroke-width="2.0" stroke-linejoin="round" stroke-linecap="butt" d="m862.3862 465.7456l-38.346436 39.40158l-8.047241 -59.433075z" fill-rule="evenodd"/></g></svg>