<svg xml:space="preserve" viewBox="0 0 100 100" y="0" x="0" xmlns="http://www.w3.org/2000/svg" id="圖層_1" version="1.1" preserveAspectRatio="xMidYMid" width="200" height="200" xmlns:xlink="http://www.w3.org/1999/xlink" style="margin-top:0px;margin-right:0px;margin-bottom:0px;margin-left:0px;display:block;shape-rendering:auto;background-position-x:0%;background-position-y:0%;background-size:auto;background-origin:padding-box;background-clip:border-box;background:scroll rgb(255, 255, 255) none  repeat;width:200px;height:200px;;animation:none"><g class="ldl-scale" style="transform-origin:50px 50px;transform:matrix(0.8, 0, 0, 0.8, 0, 0);;animation:none"><g class="ldl-ani"><g class="ldl-layer"><g class="ldl-ani" style="transform-box:view-box;transform-origin:50px 50px;transform:matrix(1.03, 0, 0, 1.03, 0, 0);animation-duration:4.7619s;animation-timing-function:linear;animation-delay:-2.55102s;animation-iteration-count:infinite;animation-direction:normal;animation-fill-mode:forwards;animation-play-state:paused;animation-name:animate;animation-timeline:auto;animation-range-start:normal;animation-range-end:normal;;animation:none"><path fill="#b5b5b5" clip-rule="evenodd" fill-rule="evenodd" d="M76.2 31.8c.6-1.9.9-3.8.9-5.9 0-10.7-8.7-19.4-19.4-19.4-7.4 0-13.9 4.2-17.2 10.3-1.2-.4-2.5-.6-3.9-.6-7.2 0-13 5.8-13 13 0 .9.1 1.8.3 2.6-6.6 1-11.6 6.7-11.6 13.6 0 7.6 6.2 13.8 13.8 13.8h47.8c7.6 0 13.8-6.2 13.8-13.8-.1-6.8-5-12.5-11.5-13.6z" style="stroke-width:1px;fill:rgb(125, 174, 201);;animation:none"></path></g></g>
<g class="ldl-layer"><g class="ldl-ani"><g><g class="ldl-layer"><g class="ldl-ani" style="transform-box:view-box;transform-origin:50px 50px;transform:matrix(1.03, 0, 0, 1.03, 0, 0);animation-duration:4.7619s;animation-timing-function:linear;animation-delay:-2.72109s;animation-iteration-count:infinite;animation-direction:normal;animation-fill-mode:forwards;animation-play-state:paused;animation-name:animate;animation-timeline:auto;animation-range-start:normal;animation-range-end:normal;;animation:none"><path fill="#e6e6e6" d="M82.4 69.2H62.2c-1.1 0-2-.9-2-2s.9-2 2-2h20.2c1.1 0 2 .9 2 2s-.9 2-2 2z" style="stroke-width:1px;fill:rgb(172, 218, 243);;animation:none"></path></g></g></g></g></g>
<g class="ldl-layer"><g class="ldl-ani"><g><g class="ldl-layer"><g class="ldl-ani" style="transform-box:view-box;transform-origin:50px 50px;transform:matrix(1.02217, 0, 0, 1.02217, 0, 0);animation-duration:4.7619s;animation-timing-function:linear;animation-delay:-2.89116s;animation-iteration-count:infinite;animation-direction:normal;animation-fill-mode:forwards;animation-play-state:paused;animation-name:animate;animation-timeline:auto;animation-range-start:normal;animation-range-end:normal;;animation:none"><path fill="#e6e6e6" d="M54 69.2H34.5c-1.1 0-2-.9-2-2s.9-2 2-2H54c1.1 0 2 .9 2 2s-.9 2-2 2z" style="stroke-width:1px;fill:rgb(172, 218, 243);;animation:none"></path></g></g></g></g></g>
<g class="ldl-layer"><g class="ldl-ani"><g><g class="ldl-layer"><g class="ldl-ani" style="transform-box:view-box;transform-origin:50px 50px;transform:matrix(1.00929, 0, 0, 1.00929, 0, 0);animation-duration:4.7619s;animation-timing-function:linear;animation-delay:-3.06122s;animation-iteration-count:infinite;animation-direction:normal;animation-fill-mode:forwards;animation-play-state:paused;animation-name:animate;animation-timeline:auto;animation-range-start:normal;animation-range-end:normal;;animation:none"><path fill="#e6e6e6" d="M26.6 69.2h-9c-1.1 0-2-.9-2-2s.9-2 2-2h9c1.1 0 2 .9 2 2s-.9 2-2 2z" style="stroke-width:1px;fill:rgb(172, 218, 243);;animation:none"></path></g></g></g></g></g>
<g class="ldl-layer"><g class="ldl-ani"><g><g class="ldl-layer"><g class="ldl-ani" style="transform-box:view-box;transform-origin:50px 50px;transform:matrix(1.00036, 0, 0, 1.00036, 0, 0);animation-duration:4.7619s;animation-timing-function:linear;animation-delay:-3.23129s;animation-iteration-count:infinite;animation-direction:normal;animation-fill-mode:forwards;animation-play-state:paused;animation-name:animate;animation-timeline:auto;animation-range-start:normal;animation-range-end:normal;;animation:none"><path fill="#e6e6e6" d="M82.4 77.3h-8.5c-1.1 0-2-.9-2-2s.9-2 2-2h8.5c1.1 0 2 .9 2 2s-.9 2-2 2z" style="stroke-width:1px;fill:rgb(172, 218, 243);;animation:none"></path></g></g></g></g></g>
<g class="ldl-layer"><g class="ldl-ani"><g><g class="ldl-layer"><g class="ldl-ani" style="transform-box:view-box;transform-origin:50px 50px;transform:matrix(0.982857, 0, 0, 0.982857, 0, 0);animation-duration:4.7619s;animation-timing-function:linear;animation-delay:-3.40136s;animation-iteration-count:infinite;animation-direction:normal;animation-fill-mode:forwards;animation-play-state:paused;animation-name:animate;animation-timeline:auto;animation-range-start:normal;animation-range-end:normal;;animation:none"><path fill="#e6e6e6" d="M65.3 77.3H49.9c-1.1 0-2-.9-2-2s.9-2 2-2h15.4c1.1 0 2 .9 2 2s-.9 2-2 2z" style="stroke-width:1px;fill:rgb(172, 218, 243);;animation:none"></path></g></g></g></g></g>
<g class="ldl-layer"><g class="ldl-ani"><g><g class="ldl-layer"><g class="ldl-ani" style="transform-box:view-box;transform-origin:50px 50px;transform:matrix(0.97254, 0, 0, 0.97254, 0, 0);animation-duration:4.7619s;animation-timing-function:linear;animation-delay:-3.57143s;animation-iteration-count:infinite;animation-direction:normal;animation-fill-mode:forwards;animation-play-state:paused;animation-name:animate;animation-timeline:auto;animation-range-start:normal;animation-range-end:normal;;animation:none"><path fill="#e6e6e6" d="M41.6 77.3H17.7c-1.1 0-2-.9-2-2s.9-2 2-2h23.9c1.1 0 2 .9 2 2s-.9 2-2 2z" style="stroke-width:1px;fill:rgb(172, 218, 243);;animation:none"></path></g></g></g></g></g>
<g class="ldl-layer"><g class="ldl-ani"><g><g class="ldl-layer"><g class="ldl-ani" style="transform-box:view-box;transform-origin:50px 50px;transform:matrix(0.956722, 0, 0, 0.956722, 0, 0);animation-duration:4.7619s;animation-timing-function:linear;animation-delay:-3.7415s;animation-iteration-count:infinite;animation-direction:normal;animation-fill-mode:forwards;animation-play-state:paused;animation-name:animate;animation-timeline:auto;animation-range-start:normal;animation-range-end:normal;;animation:none"><path fill="#e6e6e6" d="M82.4 85.4H69.6c-1.1 0-2-.9-2-2s.9-2 2-2h12.8c1.1 0 2 .9 2 2s-.9 2-2 2z" style="stroke-width:1px;fill:rgb(172, 218, 243);;animation:none"></path></g></g></g></g></g>
<g class="ldl-layer"><g class="ldl-ani"><g><g class="ldl-layer"><g class="ldl-ani" style="transform-box:view-box;transform-origin:50px 50px;transform:matrix(0.93948, 0, 0, 0.93948, 0, 0);animation-duration:4.7619s;animation-timing-function:linear;animation-delay:-3.91156s;animation-iteration-count:infinite;animation-direction:normal;animation-fill-mode:forwards;animation-play-state:paused;animation-name:animate;animation-timeline:auto;animation-range-start:normal;animation-range-end:normal;;animation:none"><path fill="#e6e6e6" d="M61.7 85.4h-29c-1.1 0-2-.9-2-2s.9-2 2-2h29c1.1 0 2 .9 2 2s-.9 2-2 2z" style="stroke-width:1px;fill:rgb(172, 218, 243);;animation:none"></path></g></g></g></g></g>
<g class="ldl-layer"><g class="ldl-ani"><g><g class="ldl-layer"><g class="ldl-ani" style="transform-box:view-box;transform-origin:50px 50px;transform:matrix(0.926886, 0, 0, 0.926886, 0, 0);animation-duration:4.7619s;animation-timing-function:linear;animation-delay:-4.08163s;animation-iteration-count:infinite;animation-direction:normal;animation-fill-mode:forwards;animation-play-state:paused;animation-name:animate;animation-timeline:auto;animation-range-start:normal;animation-range-end:normal;;animation:none"><path fill="#e6e6e6" d="M24.9 85.4h-7.2c-1.1 0-2-.9-2-2s.9-2 2-2h7.2c1.1 0 2 .9 2 2s-.9 2-2 2z" style="stroke-width:1px;fill:rgb(172, 218, 243);;animation:none"></path></g></g></g></g></g>
<g class="ldl-layer"><g class="ldl-ani"><g><g class="ldl-layer"><g class="ldl-ani" style="transform-box:view-box;transform-origin:50px 50px;transform:matrix(0.917572, 0, 0, 0.917572, 0, 0);animation-duration:4.7619s;animation-timing-function:linear;animation-delay:-4.2517s;animation-iteration-count:infinite;animation-direction:normal;animation-fill-mode:forwards;animation-play-state:paused;animation-name:animate;animation-timeline:auto;animation-range-start:normal;animation-range-end:normal;;animation:none"><path fill="#e6e6e6" d="M82.4 93.5h-8.5c-1.1 0-2-.9-2-2s.9-2 2-2h8.5c1.1 0 2 .9 2 2s-.9 2-2 2z" style="stroke-width:1px;fill:rgb(172, 218, 243);;animation:none"></path></g></g></g></g></g>
<g class="ldl-layer"><g class="ldl-ani"><g><g class="ldl-layer"><g class="ldl-ani" style="transform-box:view-box;transform-origin:50px 50px;transform:matrix(0.911647, 0, 0, 0.911647, 0, 0);animation-duration:4.7619s;animation-timing-function:linear;animation-delay:-4.42177s;animation-iteration-count:infinite;animation-direction:normal;animation-fill-mode:forwards;animation-play-state:paused;animation-name:animate;animation-timeline:auto;animation-range-start:normal;animation-range-end:normal;;animation:none"><path fill="#e6e6e6" d="M66.6 93.5h-8.8c-1.1 0-2-.9-2-2s.9-2 2-2h8.8c1.1 0 2 .9 2 2s-.9 2-2 2z" style="stroke-width:1px;fill:rgb(172, 218, 243);;animation:none"></path></g></g></g></g></g>
<g class="ldl-layer"><g class="ldl-ani"><g><g class="ldl-layer"><g class="ldl-ani" style="transform-box:view-box;transform-origin:50px 50px;transform:matrix(0.91, 0, 0, 0.91, 0, 0);animation-duration:4.7619s;animation-timing-function:linear;animation-delay:-4.59184s;animation-iteration-count:infinite;animation-direction:normal;animation-fill-mode:forwards;animation-play-state:paused;animation-name:animate;animation-timeline:auto;animation-range-start:normal;animation-range-end:normal;;animation:none"><path fill="#e6e6e6" d="M50 93.5H38.3c-1.1 0-2-.9-2-2s.9-2 2-2H50c1.1 0 2 .9 2 2s-.9 2-2 2z" style="stroke-width:1px;fill:rgb(172, 218, 243);;animation:none"></path></g></g></g></g></g>
<g class="ldl-layer"><g class="ldl-ani"><g><g class="ldl-layer"><g class="ldl-ani" style="transform-box:view-box;transform-origin:50px 50px;transform:matrix(0.91, 0, 0, 0.91, 0, 0);animation-duration:4.7619s;animation-timing-function:linear;animation-delay:-4.7619s;animation-iteration-count:infinite;animation-direction:normal;animation-fill-mode:forwards;animation-play-state:paused;animation-name:animate;animation-timeline:auto;animation-range-start:normal;animation-range-end:normal;;animation:none"><path fill="#e6e6e6" d="M30.7 93.5h-13c-1.1 0-2-.9-2-2s.9-2 2-2h13c1.1 0 2 .9 2 2s-.9 2-2 2z" style="stroke-width:1px;fill:rgb(172, 218, 243);;animation:none"></path></g></g></g></g></g>
<metadata xmlns:d="https://loading.io/stock/"></metadata></g></g>
<STYLE type="text/css">@keyframes animate { 0.00% {transform: translate(0.00px,0.00px) rotate(0.00deg) scale(0.91, 0.91) skew(0deg, 0.00deg) ;opacity: 1.00;}4.00% {transform: translate(0.00px,0.00px) rotate(0.00deg) scale(0.91, 0.91) ;}8.00% {animation-timing-function: cubic-bezier(0.69,0.60,0.35,0.27);transform: translate(0.00px,0.00px) rotate(0.00deg) scale(0.91, 0.91) ;}14.00% {transform: translate(0.00px,0.00px) rotate(0.00deg) scale(0.93, 0.93) ;}18.00% {transform: translate(0.00px,0.00px) rotate(0.00deg) scale(0.94, 0.94) ;}22.00% {animation-timing-function: cubic-bezier(0.67,0.66,0.34,0.33);transform: translate(0.00px,0.00px) rotate(0.00deg) scale(0.96, 0.96) ;}26.00% {transform: translate(0.00px,0.00px) rotate(0.00deg) scale(0.97, 0.97) ;}30.00% {transform: translate(0.00px,0.00px) rotate(0.00deg) scale(0.99, 0.99) ;}34.00% {animation-timing-function: cubic-bezier(0.65,0.71,0.32,0.38);transform: translate(0.00px,0.00px) rotate(0.00deg) scale(1.01, 1.01) ;}40.00% {animation-timing-function: cubic-bezier(0.64,0.74,0.31,0.41);transform: translate(0.00px,0.00px) rotate(0.00deg) scale(1.02, 1.02) ;}46.00% {animation-timing-function: cubic-bezier(0.60,0.91,0.23,0.63);transform: translate(0.00px,0.00px) rotate(0.00deg) scale(1.03, 1.03) ;}50.00% {transform: translate(0.00px,0.00px) rotate(0.00deg) scale(1.03, 1.03) ;}54.00% {transform: translate(0.00px,0.00px) rotate(0.00deg) scale(1.03, 1.03) ;}58.00% {animation-timing-function: cubic-bezier(0.69,0.60,0.35,0.27);transform: translate(0.00px,0.00px) rotate(0.00deg) scale(1.03, 1.03) ;}64.00% {transform: translate(0.00px,0.00px) rotate(0.00deg) scale(1.01, 1.01) ;}68.00% {transform: translate(0.00px,0.00px) rotate(0.00deg) scale(1.00, 1.00) ;}72.00% {animation-timing-function: cubic-bezier(0.67,0.66,0.34,0.33);transform: translate(0.00px,0.00px) rotate(0.00deg) scale(0.98, 0.98) ;}76.00% {animation-timing-function: cubic-bezier(0.66,0.68,0.33,0.35);transform: translate(0.00px,0.00px) rotate(0.00deg) scale(0.97, 0.97) ;}82.00% {animation-timing-function: cubic-bezier(0.65,0.71,0.32,0.38);transform: translate(0.00px,0.00px) rotate(0.00deg) scale(0.94, 0.94) ;}88.00% {animation-timing-function: cubic-bezier(0.65,0.73,0.31,0.40);transform: translate(0.00px,0.00px) rotate(0.00deg) scale(0.92, 0.92) ;}94.00% {animation-timing-function: cubic-bezier(0.63,0.80,0.28,0.48);transform: translate(0.00px,0.00px) rotate(0.00deg) scale(0.91, 0.91) ;}100.00% {animation-timing-function: cubic-bezier(0.63,0.80,0.28,0.48);transform: translate(0.00px,0.00px) rotate(0.00deg) scale(0.91, 0.91) ;} }</STYLE><!-- [ldio] generated by https://loading.io --></svg>