<svg version="1.1" id="Layer_1" xmlns="http://www.w3.org/2000/svg" xmlns:xlink="http://www.w3.org/1999/xlink" x="0px" y="0px"
	 width="100%" viewBox="0 0 1024 720" enable-background="new 0 0 1024 720" xml:space="preserve">
<path fill="red" opacity="1.000000" stroke="none" 
	d="
M305.000488,546.038513 
	C257.675873,545.011536 210.810196,545.170776 164.063248,541.881714 
	C164.066589,541.254150 164.069931,540.626587 164.073273,539.999023 
	C249.610367,539.999023 335.147461,539.999023 420.684570,539.999023 
	C420.745880,539.526489 420.807190,539.053955 420.868469,538.581421 
	C411.409912,536.873413 405.540802,530.849609 402.080902,522.498230 
	C400.019684,517.522827 396.944702,515.882935 391.702179,516.243713 
	C378.749298,517.135132 365.768707,517.648315 352.793579,518.172913 
	C350.276245,518.274597 348.885712,519.373047 347.705658,521.438843 
	C346.057709,524.323730 344.326263,527.200562 342.290497,529.816101 
	C337.961060,535.378479 332.266602,538.361084 325.072205,538.423767 
	C312.246002,538.535522 299.422485,538.105835 286.589569,538.757385 
	C278.648041,539.160583 272.461761,535.482056 268.323273,528.609009 
	C267.465942,527.185181 266.332855,525.741394 266.063049,524.179688 
	C264.240173,513.627747 257.768280,511.660065 247.883575,512.048523 
	C227.582764,512.846375 207.227341,512.259583 186.894409,512.233337 
	C179.370712,512.223633 178.001968,510.833374 177.984161,503.137024 
	C177.907059,469.805145 177.833694,436.473236 177.774902,403.141357 
	C177.737579,381.975220 177.659134,360.808685 177.760345,339.643097 
	C177.782562,335.001892 178.216080,330.321075 178.936508,325.733307 
	C180.477188,315.921906 186.610001,310.293030 195.956390,307.582367 
	C217.222290,301.414734 238.459152,295.145905 259.685455,288.842957 
	C348.578400,262.447144 437.441559,235.950760 526.365417,209.659500 
	C549.666138,202.770401 572.700623,194.872604 596.398254,189.449799 
	C613.929749,185.438034 631.814392,186.266632 649.614075,187.983643 
	C650.697815,188.088181 651.737671,188.646347 652.793274,189.470276 
	C643.979980,192.367203 634.375549,190.823486 625.773560,195.483414 
	C634.193726,196.216446 642.601074,197.190353 651.036255,197.642258 
	C695.933655,200.047531 738.986938,209.722336 779.446106,229.803391 
	C780.752991,230.452072 782.005554,231.293213 784.086060,230.990494 
	C777.046692,223.961960 767.628235,221.319809 760.118530,216.047546 
	C760.423523,214.028809 761.681030,213.750092 762.765198,214.184372 
	C779.062439,220.712921 795.659973,226.789963 803.531128,244.693817 
	C807.149414,252.924118 811.580261,260.806641 815.000000,269.111481 
	C817.193298,274.437866 820.338989,275.313873 825.517273,274.245178 
	C840.765442,271.098206 850.174377,276.863495 854.088318,291.675140 
	C855.093018,295.477112 856.326416,298.433624 860.481567,299.580109 
	C863.544434,300.425201 864.273438,303.115234 864.280579,305.937012 
	C864.311279,318.102936 864.330750,330.269318 864.258240,342.434937 
	C864.228699,347.391449 861.642517,350.058746 856.627747,350.521637 
	C853.255859,350.832916 849.978271,350.492615 846.723938,349.744781 
	C842.781738,348.838867 840.722351,346.254669 840.705627,342.252411 
	C840.652161,329.419678 840.692078,316.586548 840.682312,303.753571 
	C840.681152,302.206635 840.824585,300.645691 842.057617,299.618988 
	C845.981079,296.351898 844.564941,292.896393 842.605347,289.350952 
	C840.252441,285.094025 836.529175,283.401428 831.825073,283.511200 
	C831.496338,283.518829 831.170471,283.628204 830.842529,283.685944 
	C822.476807,285.158386 822.103638,285.804352 825.226990,293.635376 
	C831.750183,309.990753 834.839111,327.170166 837.277344,344.482178 
	C839.872986,362.912354 841.873230,381.434296 844.849731,399.800049 
	C846.738220,411.452393 843.450989,419.869019 833.262756,425.987762 
	C821.279419,433.184601 808.207764,436.605988 794.543457,438.281189 
	C756.669800,442.924469 722.965210,430.815674 690.756531,412.515991 
	C669.751770,400.581940 648.715210,388.695862 627.474182,377.192017 
	C622.360107,374.422363 620.956482,370.823212 620.970825,365.554108 
	C621.054138,334.888763 620.991150,304.223022 620.976318,273.557434 
	C620.975769,272.390900 620.998169,271.222839 620.948303,270.058136 
	C620.707581,264.438660 619.636292,263.515564 614.270020,264.677399 
	C589.712830,269.994293 565.160889,275.336212 540.616394,280.711517 
	C466.653473,296.909546 392.825226,313.697052 319.227631,331.486572 
	C302.243378,335.591888 285.342651,340.044403 268.344971,344.091492 
	C263.839691,345.164154 261.768707,347.222198 262.233429,351.974976 
	C262.631836,356.049286 261.788513,360.231140 263.293060,365.652710 
	C265.818573,360.204224 266.490234,355.536560 267.716644,351.066437 
	C268.253082,349.111206 268.547424,347.178802 270.921753,346.466003 
	C280.292145,343.652893 289.820923,341.652710 299.854462,340.118286 
	C300.524445,344.952881 301.127350,349.303589 301.811584,354.240967 
	C305.421265,351.409027 306.125458,347.662201 307.448029,344.443085 
	C309.125854,340.359344 311.694153,337.937408 316.011139,337.008362 
	C324.958038,335.082947 333.891296,333.077667 342.774567,330.880432 
	C346.976227,329.841125 348.438049,331.641632 349.036743,335.445221 
	C349.809509,340.354553 348.458008,345.428406 350.330475,350.893677 
	C353.931488,346.653778 355.252869,341.766357 356.313690,337.207642 
	C358.111633,329.481354 362.398895,325.768555 370.107422,324.884125 
	C374.705780,324.356537 379.190369,322.848358 383.730560,321.800323 
	C390.413422,320.257690 390.896149,320.723267 391.369629,327.889801 
	C391.729462,333.335144 392.339050,338.764008 392.931732,345.228333 
	C395.473297,342.761597 395.993225,340.372131 396.880768,338.233765 
	C399.371185,332.233582 401.818054,326.215027 404.240662,320.187073 
	C404.943085,318.439331 405.683228,316.766022 407.726379,316.271484 
	C419.494110,313.423309 431.266022,310.592346 442.948425,307.776764 
	C447.062286,314.282898 443.933014,321.425568 446.601227,328.710419 
	C450.367554,322.630859 452.271851,316.794861 454.272186,311.133728 
	C455.927277,306.449829 458.746399,304.199463 463.366058,303.175323 
	C472.463531,301.158539 481.488129,298.815277 490.563873,296.697052 
	C495.223511,295.609497 497.005280,297.034698 497.285980,301.901093 
	C497.640656,308.049408 497.915588,314.202240 498.265198,320.350861 
	C498.355743,321.943054 497.905334,323.739624 499.988403,325.113251 
	C502.074921,322.472809 502.687073,319.226379 503.732880,316.198730 
	C505.961090,309.748352 508.187897,303.296570 510.312073,296.811584 
	C511.225281,294.023712 512.965576,292.250977 515.778381,291.535583 
	C527.067505,288.664307 538.332886,285.691864 549.665833,283.004791 
	C553.991516,281.979187 554.052429,285.607910 554.275635,288.354950 
	C555.030823,297.647583 555.608826,306.954559 556.273071,316.254730 
	C556.365540,317.550110 556.561218,318.838104 556.709167,320.129517 
	C557.128601,320.176239 557.548096,320.222931 557.967590,320.269653 
	C558.534790,315.061371 559.205078,309.861694 559.642334,304.642517 
	C560.156189,298.508820 560.573914,292.362518 560.825928,286.213196 
	C560.968872,282.726044 562.517883,280.824341 565.829773,279.719696 
	C580.083374,274.965759 594.802917,272.141113 609.425659,268.904053 
	C612.770996,268.163452 614.556091,269.639923 614.987366,272.845703 
	C615.230408,274.652771 615.221558,276.501740 615.223389,278.331940 
	C615.252258,307.164612 615.274231,335.997253 615.273499,364.829926 
	C615.273315,372.149200 613.957886,373.082275 606.976074,371.080292 
	C583.516296,364.353333 559.506348,361.011078 535.218384,359.212311 
	C515.246765,357.733276 495.265472,357.617767 475.275299,358.271057 
	C451.467194,359.049072 427.829315,361.792145 404.212524,364.759521 
	C355.419464,370.890289 307.796600,383.050995 259.677917,392.659088 
	C251.359131,394.320129 243.003769,395.623352 234.423828,395.445862 
	C215.964676,395.063995 205.313583,384.737823 204.775085,366.248505 
	C204.108948,343.376984 218.759933,322.090454 241.474335,313.590698 
	C258.179260,307.339691 275.628967,303.516083 292.768829,298.697418 
	C355.901489,280.948517 419.061676,263.296936 482.238281,245.704895 
	C515.267273,236.507690 548.289368,227.273926 581.434875,218.511978 
	C601.366333,213.243149 618.548401,219.235519 633.213257,233.274933 
	C635.015747,235.000519 636.860474,236.683594 638.730408,238.335571 
	C639.037170,238.606537 639.577393,238.613174 640.108276,238.771332 
	C635.145630,224.383377 616.748596,210.416931 602.017029,209.200745 
	C588.514465,208.085999 575.975952,212.103912 563.343384,215.690948 
	C455.415436,246.337051 347.501465,277.032471 239.586349,307.723694 
	C225.682495,311.677917 212.011658,316.278320 202.634689,328.198303 
	C189.815033,344.494629 185.260284,362.866699 190.745438,383.103577 
	C194.259949,396.069946 205.708206,404.029877 219.405121,404.773071 
	C238.824387,405.826752 257.432220,401.147369 276.203491,397.512848 
	C318.885895,389.248688 361.761047,382.540588 405.274872,380.530731 
	C424.244751,379.654510 443.204956,378.170197 462.199158,378.867004 
	C495.980499,380.106293 529.766724,381.477570 562.571289,390.980042 
	C580.443237,396.157013 597.096008,403.290985 609.256836,418.251404 
	C620.486511,432.066437 625.509705,448.179535 627.361633,465.583557 
	C628.334351,474.724854 628.286438,483.879852 628.176086,493.033447 
	C628.126892,497.112396 629.820435,498.891022 633.741211,498.875000 
	C638.572510,498.855225 643.404175,498.801392 648.235046,498.837189 
	C651.334900,498.860138 652.563538,497.370056 652.938721,494.325439 
	C654.045227,485.347046 653.456177,476.343811 653.635010,467.355225 
	C653.941284,451.957947 660.590637,444.601959 676.007935,444.851105 
	C704.653137,445.314026 733.285400,446.545898 761.925354,447.378906 
	C781.073975,447.935852 800.227478,448.322113 819.376648,448.861542 
	C824.533569,449.006805 829.707520,449.209961 834.829224,449.783051 
	C841.898315,450.574097 844.385437,453.534790 844.405945,460.651367 
	C844.435669,470.973145 844.424622,481.295410 844.359192,491.617004 
	C844.303223,500.442413 841.407471,503.594208 832.525452,504.268768 
	C822.565674,505.025177 812.598694,505.818512 802.620239,506.140686 
	C797.871338,506.293976 795.160095,508.370087 793.622986,512.542175 
	C792.932434,514.416565 792.339905,516.326843 791.658875,518.204895 
	C786.591248,532.178955 776.914612,538.974304 762.100403,538.979797 
	C756.100647,538.981995 750.100891,538.979553 744.101135,538.992737 
	C729.730286,539.024414 720.742126,533.687195 715.977112,520.303833 
	C713.348633,512.921265 709.372925,510.880554 702.011047,511.074890 
	C683.690918,511.558563 665.350647,511.385834 647.019653,511.278748 
	C642.242554,511.250824 639.294373,512.876831 637.451538,517.477600 
	C635.475952,522.410217 632.749268,527.056213 629.056396,531.001526 
	C624.517822,535.850525 619.093079,538.523621 612.259033,538.424866 
	C600.428223,538.253845 588.587708,538.128357 576.762268,538.423767 
	C567.661438,538.651062 561.033691,534.796387 556.233765,527.446228 
	C553.871216,523.828369 551.723022,520.037292 549.842163,516.148438 
	C548.248352,512.853088 545.813538,511.414185 542.333496,511.452911 
	C525.006653,511.645691 507.680267,511.898682 490.352997,512.036621 
	C486.697845,512.065674 484.672668,513.751892 483.123657,516.989685 
	C480.547760,522.373962 478.239594,527.971985 473.772583,532.242065 
	C469.619690,536.211975 464.878021,538.504944 458.994751,538.415588 
	C450.838776,538.291687 442.679535,538.384460 434.520874,538.677124 
	C575.899048,538.630127 717.273132,539.105042 858.696899,541.151550 
	C852.634827,542.507263 846.470764,542.678650 840.395691,543.002075 
	C822.268921,543.966980 804.119446,544.736816 785.970215,545.008423 
	C625.818665,547.405396 465.657501,545.860352 305.000488,546.038513 
M402.598114,391.307800 
	C385.518372,392.731445 368.521515,394.912964 351.611786,397.622375 
	C319.726593,402.731323 288.155457,409.429352 256.869080,417.430023 
	C235.742889,422.832428 214.762817,428.760834 193.873535,435.026520 
	C188.900879,436.518036 186.640884,438.999176 187.277710,444.292725 
	C187.673096,447.579285 187.363968,450.950165 187.377182,454.283203 
	C187.426010,466.606537 187.414459,466.467865 200.036270,465.328888 
	C213.310654,464.131073 226.684219,465.130005 239.963745,463.751404 
	C243.614319,463.372437 245.698608,464.790161 245.311981,468.881866 
	C244.953796,472.672363 242.092209,472.123901 239.725067,472.233978 
	C224.427078,472.945282 209.128235,473.656158 193.823639,474.196289 
	C189.340210,474.354492 187.028000,475.872620 187.315735,480.770630 
	C187.608383,485.752563 187.421005,490.766693 187.343903,495.765198 
	C187.277084,500.096375 189.019730,502.018768 193.630646,501.938599 
	C207.792511,501.692383 221.960114,501.769104 236.125519,501.736847 
	C248.977325,501.707581 248.819122,501.704987 249.793472,488.991241 
	C250.546387,479.166656 251.961060,469.372253 257.054779,460.686707 
	C263.153412,450.287750 271.163757,442.206055 284.347290,442.797241 
	C295.562408,443.300140 302.964294,450.241333 308.598267,459.181854 
	C314.026306,467.795624 316.627502,477.427246 317.310455,487.533630 
	C318.006622,497.835785 319.757355,499.619965 330.007874,499.674683 
	C330.674469,499.678253 331.341095,499.679535 332.007690,499.679504 
	C392.336456,499.677734 452.665192,499.676697 512.993958,499.668945 
	C514.659302,499.668732 516.327515,499.646851 517.989380,499.549011 
	C522.694397,499.271912 525.130920,497.341736 524.855103,492.033112 
	C524.214172,479.699768 525.003296,467.431671 527.627869,455.298492 
	C532.429626,433.100586 543.187134,415.422974 564.607727,405.617218 
	C565.764648,405.087646 567.177246,404.764099 567.846313,403.304321 
	C566.811829,401.040466 564.486511,400.869385 562.520508,400.169891 
	C537.881592,391.404297 512.175293,389.251099 486.348450,388.393951 
	C458.693848,387.476074 431.062347,388.393066 402.598114,391.307800 
M815.565735,297.909485 
	C812.096436,289.422333 808.330872,281.098053 803.213989,273.426483 
	C801.279297,270.525818 799.495239,269.544739 795.873108,271.016571 
	C786.305359,274.904388 776.292175,277.427551 766.153015,279.417725 
	C759.827637,280.659302 758.707886,282.275696 759.543091,288.618896 
	C762.109375,308.108948 763.587219,327.687561 763.156067,347.338562 
	C763.037598,352.736664 765.171814,354.185577 769.896545,354.701874 
	C788.003479,356.680481 805.638794,360.707123 822.609070,367.466614 
	C824.196716,368.098999 825.786682,369.489197 828.666565,367.979187 
	C826.136963,344.748627 824.405396,321.109283 815.565735,297.909485 
M671.384094,462.203827 
	C670.458191,461.026947 670.418274,458.856720 667.653687,459.229218 
	C665.763550,468.447998 665.116516,477.869873 664.405762,487.260345 
	C664.120605,491.028229 666.669495,492.101196 670.084839,491.352509 
	C685.661011,487.938232 701.491516,488.070862 717.295044,488.110779 
	C753.262268,488.201599 789.229187,488.425171 825.196106,488.624542 
	C829.711426,488.649567 834.608032,487.635620 837.233459,493.389191 
	C840.360718,486.480835 840.121521,480.444611 836.848450,475.004700 
	C828.731079,477.267975 820.386047,476.041260 812.101624,476.077881 
	C804.215942,476.112671 803.919128,475.995789 802.883972,468.452301 
	C802.206848,463.518005 799.774292,462.258789 795.199097,462.180695 
	C783.053894,461.973450 770.867920,461.862030 758.789185,460.736298 
	C748.074890,459.737701 739.270874,461.380188 733.880371,471.793732 
	C732.550842,474.362122 730.519531,476.114014 727.139343,476.063629 
	C716.315918,475.902222 705.482361,476.211212 694.665100,475.903076 
	C684.838928,475.623169 676.300293,472.551025 671.384094,462.203827 
M714.934082,324.375275 
	C718.026733,325.020935 721.092590,325.878967 724.217041,326.271851 
	C733.103027,327.389160 737.619080,332.812714 739.443420,341.117279 
	C740.013367,343.711945 740.786133,346.261475 741.401428,348.847046 
	C742.131348,351.914520 744.441223,351.934509 746.878052,351.811188 
	C749.443176,351.681366 749.648743,349.884155 749.666748,347.939026 
	C749.847046,328.437744 748.157654,309.069305 745.594238,289.758362 
	C745.085815,285.928131 743.022827,284.726990 739.397827,285.437073 
	C725.210327,288.216187 711.012207,290.941162 696.823730,293.715393 
	C694.793457,294.112396 692.625427,294.842682 692.650696,297.289764 
	C692.745667,306.495270 693.062805,315.698486 693.326477,326.072754 
	C700.707153,320.819672 707.425659,323.074036 714.934082,324.375275 
M604.176514,477.374329 
	C602.942932,470.409393 600.778809,463.831390 596.186890,458.273621 
	C586.341919,446.357819 571.172241,445.798035 561.084534,456.972260 
	C548.210083,471.233429 547.570496,499.199554 559.779236,514.050110 
	C570.865784,527.535645 586.481140,527.058594 596.648682,512.865051 
	C604.121277,502.433533 606.040344,490.719086 604.176514,477.374329 
M289.873962,522.462097 
	C302.381653,512.776428 301.195923,488.040222 294.109497,478.812347 
	C288.204254,471.122589 281.130188,470.430878 274.298798,477.251648 
	C263.569366,487.964264 263.363007,510.406647 273.895111,521.160889 
	C279.187195,526.564636 282.752747,526.973511 289.873962,522.462097 
M663.361938,352.894348 
	C664.597839,333.350800 662.807800,314.017822 659.272217,294.812592 
	C657.885803,287.281494 656.144104,279.834717 653.572876,272.603882 
	C652.526306,269.660645 651.123901,267.541168 647.357605,268.778564 
	C643.749573,269.963989 643.974426,272.308960 644.932129,275.116058 
	C645.360840,276.372620 645.602478,277.692505 646.022156,278.952667 
	C653.376770,301.037415 656.457764,323.876740 658.488159,346.956268 
	C658.940674,352.099396 658.405945,357.638489 660.958984,363.233734 
	C661.687378,362.011292 662.094238,361.614014 662.163452,361.164764 
	C662.541931,358.706238 662.837769,356.235016 663.361938,352.894348 
M643.230042,346.256897 
	C643.791931,348.992462 645.371033,350.326080 648.215088,349.740143 
	C651.241882,349.116638 650.742432,346.718262 650.696411,344.582855 
	C650.678467,343.752960 650.677856,342.912567 650.546570,342.096741 
	C647.133240,320.891541 641.819397,300.200531 633.741821,280.263336 
	C633.270630,279.100494 633.118103,277.619446 631.166382,277.329468 
	C630.913940,278.067749 630.438843,278.813873 630.435791,279.561890 
	C630.385986,292.023254 630.396912,304.484894 630.390259,316.946442 
	C630.388977,319.452698 631.802368,320.979401 633.962585,321.838043 
	C637.236511,323.139374 638.853027,325.684692 639.550964,328.945923 
	C640.728943,334.450562 641.854065,339.966553 643.230042,346.256897 
M571.263489,306.062347 
	C571.493652,307.622284 570.708862,309.378632 572.442871,311.086823 
	C576.356201,304.576996 580.189270,298.224396 583.998535,291.857544 
	C588.114014,284.978851 595.840881,283.877930 602.311218,280.622894 
	C592.680054,281.112091 583.616760,283.817230 574.409668,285.746826 
	C572.672302,286.110931 572.495178,287.742401 572.238159,289.291931 
	C571.363708,294.563141 571.182251,299.865143 571.263489,306.062347 
z"/>
<path fill="#000000" opacity="1.000000" stroke="none" 
	d="
M518.446777,448.531677 
	C518.401978,457.324371 518.017639,457.645477 509.701630,458.419556 
	C490.299042,460.225586 470.816742,460.486938 451.369812,461.086670 
	C415.770660,462.184479 380.227631,464.303009 344.660492,465.983856 
	C338.509094,466.274567 332.337891,466.125153 326.181030,466.332703 
	C323.062134,466.437836 321.774017,465.311676 321.547119,462.058624 
	C321.294128,458.431488 323.101166,457.157684 326.110168,456.955475 
	C333.415192,456.464539 340.731201,456.136597 348.043060,455.748566 
	C377.782257,454.170380 407.519592,452.556549 437.261383,451.029510 
	C460.359039,449.843628 483.458130,448.661285 506.567200,447.746216 
	C510.404602,447.594269 514.453308,445.495300 518.446777,448.531677 
z"/>
<path fill="#000000" opacity="1.000000" stroke="none" 
	d="
M759.720703,472.146423 
	C759.546570,468.194122 761.551392,467.049866 764.687012,467.003174 
	C770.997498,466.909210 777.299072,466.761139 783.592224,467.564026 
	C786.041748,467.876526 788.551880,467.971863 788.277588,471.262573 
	C787.990723,474.703369 789.195618,479.436890 784.559631,480.520844 
	C777.418518,482.190430 769.963379,481.951660 762.795898,480.619659 
	C758.830627,479.882721 759.999084,475.598938 759.720703,472.146423 
z"/>
<path fill="#000000" opacity="1.000000" stroke="none" 
	d="
M556.492188,494.109375 
	C554.893005,486.235535 555.867615,479.023224 559.362732,472.369690 
	C562.259033,466.856140 566.566711,462.763367 573.390442,462.648438 
	C580.210022,462.533539 584.542480,466.450287 587.732849,471.878540 
	C593.695251,482.023102 592.708618,496.466278 585.579041,505.804993 
	C578.843323,514.627869 568.237793,514.649231 561.525574,505.859497 
	C558.948914,502.485260 557.439880,498.649750 556.492188,494.109375 
M570.112488,495.018707 
	C572.737366,497.192688 574.828674,495.884583 576.457336,493.761536 
	C579.235229,490.140472 579.411011,486.134918 577.405640,482.077820 
	C576.487793,480.220917 575.040771,478.663177 572.871216,478.660614 
	C570.476685,478.657776 568.811829,480.318512 568.093506,482.424896 
	C566.656494,486.638763 566.381897,490.855042 570.112488,495.018707 
z"/>
<path fill="#000000" opacity="1.000000" stroke="none" 
	d="
M586.233521,464.810150 
	C582.915405,462.667694 579.607178,461.127991 576.816589,458.221313 
	C581.777954,454.269073 586.439880,456.137207 590.670593,458.581573 
	C595.598938,461.428986 599.036011,465.614655 599.637695,472.351013 
	C594.131042,470.704620 590.641907,467.300598 586.233521,464.810150 
z"/>
<path fill="#000000" opacity="1.000000" stroke="none" 
	d="
M275.357086,517.046265 
	C268.583435,510.026245 266.617889,497.685730 270.823853,489.424469 
	C272.709656,485.720428 275.473511,482.882324 280.002350,482.755249 
	C284.410156,482.631531 287.245789,485.299835 288.898285,488.899109 
	C292.642181,497.053864 292.812714,505.309479 288.045197,513.185913 
	C285.127777,518.005798 281.254089,519.128784 275.357086,517.046265 
M276.406525,501.219757 
	C276.745300,503.033752 277.007477,505.199524 279.352600,505.153534 
	C281.140228,505.118469 282.181793,503.413696 282.564484,501.756531 
	C283.270599,498.698975 282.242645,496.350647 279.474121,494.908875 
	C276.990570,496.240784 276.414520,498.225464 276.406525,501.219757 
z"/>
</svg>