<svg version="1.1" id="Layer_1" xmlns="http://www.w3.org/2000/svg" xmlns:xlink="http://www.w3.org/1999/xlink" x="0px" y="0px"
	 width="100%" viewBox="0 0 421 412" enable-background="new 0 0 421 412" xml:space="preserve">
<path fill="#FEFEFE" opacity="1.000000" stroke="none" 
	d="
M290.000000,413.000000 
	C193.333344,413.000000 97.166687,413.000000 1.000026,413.000000 
	C1.000017,275.666687 1.000017,138.333389 1.000009,1.000063 
	C141.333298,1.000042 281.666595,1.000042 421.999908,1.000021 
	C421.999939,138.333267 421.999939,275.666534 421.999969,412.999908 
	C378.166656,413.000000 334.333344,413.000000 290.000000,413.000000 
M94.367653,331.365997 
	C94.299599,330.920197 94.231544,330.474426 94.401009,329.553741 
	C94.315948,328.698212 94.230896,327.842682 94.381996,326.104309 
	C94.381996,324.526459 94.381996,322.948608 94.381996,321.358795 
	C85.940651,321.358795 78.178352,321.358795 69.824249,321.358795 
	C69.824249,325.957306 69.824249,330.329468 69.824249,334.959717 
	C57.628963,334.959717 46.026199,334.959717 34.326401,334.959717 
	C34.326401,341.458221 34.326401,347.669189 34.326401,353.933380 
	C35.294525,353.976532 35.948391,354.031036 36.602272,354.031189 
	C97.727058,354.045258 158.851852,354.055847 219.976639,354.059540 
	C220.973526,354.059601 221.994232,354.096130 222.963821,353.908722 
	C246.181213,349.421509 269.329620,344.535706 292.630707,340.539368 
	C305.829742,338.275635 319.245331,336.844208 332.621216,336.146515 
	C351.055267,335.184967 369.544098,335.276611 388.008972,334.893280 
	C388.947632,334.873779 389.881683,334.630066 390.704895,334.507568 
	C390.704895,329.950836 390.704895,325.694672 390.704895,321.339722 
	C328.881592,321.339722 267.344238,321.339722 205.148895,321.339722 
	C205.148895,325.907410 205.148895,330.276855 205.148895,334.574402 
	C197.900085,334.574402 191.313370,334.574402 184.510239,334.574402 
	C184.194443,330.062592 183.896576,325.807251 183.592377,321.461182 
	C175.960342,321.461182 168.084427,321.461182 159.769592,321.461182 
	C159.769592,326.041351 159.769592,330.296173 159.769592,334.843140 
	C141.864807,334.843140 124.403770,334.818176 106.943054,334.882507 
	C105.230988,334.888794 103.520943,335.444061 101.254921,335.708344 
	C99.817078,335.523987 98.379227,335.339661 96.389816,334.967743 
	C96.004311,334.924744 95.618805,334.881714 94.965744,334.275177 
	C94.667709,333.513062 94.369682,332.750916 94.367653,331.365997 
M203.662933,106.503387 
	C203.105530,106.412384 202.548141,106.321381 201.166794,106.034500 
	C197.035782,105.696701 192.906708,105.098099 188.773407,105.067482 
	C173.178421,104.951958 157.582047,105.021088 141.982330,105.021088 
	C142.161438,95.119209 153.099716,80.459953 168.067719,78.171501 
	C175.563400,77.025482 183.281311,77.275925 190.903244,77.042595 
	C193.726883,76.956154 196.459793,76.275818 195.756134,73.108345 
	C195.390869,71.464218 192.541031,69.214363 190.801727,69.203857 
	C154.845963,68.986687 118.888481,69.058517 82.931335,69.050987 
	C80.105141,69.050392 77.986504,69.809647 77.852638,73.087677 
	C77.709320,76.596901 79.932045,76.976540 82.765900,77.053383 
	C90.388824,77.260101 98.108299,77.015869 105.603409,78.164536 
	C120.191780,80.400269 131.157425,94.279945 131.860458,105.233742 
	C121.882736,105.233742 111.939072,105.233742 101.077522,105.054108 
	C96.052902,105.101112 91.028290,105.148109 85.260727,105.026253 
	C84.505737,105.084373 83.750748,105.142494 82.087166,105.047058 
	C79.592606,105.042603 77.098038,105.035782 74.603477,105.034203 
	C69.285049,105.030838 65.227150,107.383644 63.049107,112.158905 
	C60.111530,118.599426 57.599541,125.234055 54.343899,132.220062 
	C53.795593,133.775818 53.247284,135.331558 52.161404,137.343262 
	C49.939358,142.662231 47.668095,147.961258 45.505096,153.304138 
	C40.351059,166.035248 36.493515,179.110291 35.049908,193.375565 
	C35.091278,193.918076 35.132652,194.460587 34.908421,195.815506 
	C34.668056,208.542526 34.427692,221.269531 34.039635,234.789749 
	C34.089184,235.861023 34.138737,236.932297 34.032791,238.928940 
	C34.088818,250.618118 34.144848,262.307281 34.039700,274.537140 
	C34.134346,275.083771 34.228996,275.630402 34.178066,276.814819 
	C35.098267,287.804657 38.958328,297.444672 47.439323,304.808289 
	C56.961166,313.075592 68.554832,314.612213 80.560036,314.613403 
	C168.808136,314.622009 257.056213,314.626587 345.304321,314.630157 
	C356.958771,314.630646 368.614197,314.706390 380.267365,314.581604 
	C388.383759,314.494720 390.977203,311.744232 390.981079,303.737244 
	C390.987610,290.249115 390.830017,276.758301 391.068237,263.274384 
	C391.143951,258.988892 389.618408,257.343506 385.461304,256.960419 
	C367.527985,255.307861 350.241669,250.858719 333.461456,244.386566 
	C301.510559,232.063080 274.766876,212.402786 252.095413,186.067810 
	C248.775604,181.991470 245.455795,177.915146 241.938110,173.177094 
	C234.347534,159.097748 226.756958,145.018402 219.127762,130.167755 
	C216.965637,124.894585 215.340317,119.300262 212.447220,114.464401 
	C210.606674,111.387901 206.884384,109.437172 203.662933,106.503387 
z"/>
<path fill="#010101" opacity="1.000000" stroke="none" 
	d="
M34.187325,233.996552 
	C34.427692,221.269531 34.668056,208.542526 35.358536,195.374054 
	C36.878029,193.959305 37.947414,192.986038 39.233467,191.901596 
	C39.721634,191.591370 39.910480,191.332108 40.232231,190.901657 
	C40.716763,190.591644 40.905155,190.333725 41.230072,189.906311 
	C41.716698,189.595032 41.905437,189.335632 42.152878,188.958359 
	C42.189026,188.928406 42.085705,188.957520 41.765728,189.097839 
	C41.277496,189.408066 41.088768,189.667404 40.767307,190.097992 
	C40.282658,190.408020 40.094421,190.666046 39.769783,191.093597 
	C39.282845,191.404800 39.094280,191.664398 38.601604,192.032318 
	C37.220592,192.339569 36.224846,192.597458 35.229095,192.855347 
	C36.493515,179.110291 40.351059,166.035248 45.505096,153.304138 
	C47.668095,147.961258 49.939358,142.662231 52.784256,137.126282 
	C54.947411,135.613297 56.487713,134.317291 58.240776,132.909363 
	C58.718819,132.600677 58.911289,132.348389 59.247200,131.925171 
	C59.733017,131.607300 59.925362,131.347626 60.252930,130.914505 
	C60.733109,130.598770 60.923283,130.341858 61.170418,129.962082 
	C61.193764,129.918793 61.082592,129.940979 60.757118,130.076782 
	C60.278370,130.392181 60.087070,130.648544 59.752556,131.074768 
	C59.266087,131.392029 59.073486,131.651566 58.748604,132.085754 
	C58.276669,132.404282 58.089840,132.660583 57.621872,132.974731 
	C56.478584,132.580246 55.691757,132.182816 54.904922,131.785385 
	C57.599541,125.234055 60.111530,118.599426 63.049107,112.158905 
	C65.227150,107.383644 69.285049,105.030838 74.603477,105.034203 
	C77.098038,105.035782 79.592606,105.042603 82.471985,105.454315 
	C81.181473,107.260475 79.506149,108.659378 77.459045,110.368713 
	C77.549164,111.071350 77.726112,112.450943 77.903061,113.830536 
	C79.021446,109.337883 86.067856,110.517052 86.003670,105.195114 
	C91.028290,105.148109 96.052902,105.101112 101.580551,105.473267 
	C103.933479,107.973732 105.912132,109.956818 107.596420,112.164474 
	C109.221786,114.294907 110.543449,116.657043 111.541832,119.030113 
	C99.080414,119.171432 87.075699,119.200020 75.050957,118.870529 
	C74.352730,118.058510 73.674530,117.604561 72.996330,117.150620 
	C72.374207,118.550262 71.752090,119.949905 71.047546,121.627808 
	C70.526535,121.921272 70.087967,121.936478 69.421066,122.061417 
	C69.350090,122.107124 69.507439,122.043114 69.882507,122.418198 
	C64.717850,135.819382 59.272240,148.755707 53.977283,161.753418 
	C50.893921,169.322250 54.470585,174.622894 62.621403,174.753510 
	C69.433029,174.862671 76.246582,174.851364 83.131760,175.293274 
	C83.409218,177.158112 83.456329,178.666824 83.847992,180.080078 
	C85.163605,184.827286 89.063736,187.251007 93.533447,186.231445 
	C99.866409,184.786865 102.069557,181.797394 101.397217,175.833618 
	C103.163399,175.326828 104.560760,174.806473 105.959236,174.803436 
	C128.428085,174.754837 150.897079,174.773041 173.366043,174.774002 
	C180.853958,174.774323 188.345459,174.912186 195.828766,174.725067 
	C203.058929,174.544281 206.582214,169.156754 204.065353,162.436874 
	C202.504257,158.268890 200.829773,154.143372 199.537079,149.954803 
	C204.574524,144.959000 209.229187,139.956192 214.017685,135.084946 
	C215.551987,133.524124 217.440125,132.311172 219.166382,130.939056 
	C226.756958,145.018402 234.347534,159.097748 242.071808,173.944672 
	C241.712753,183.084427 244.042068,185.858353 252.296738,186.729736 
	C274.766876,212.402786 301.510559,232.063080 333.461456,244.386566 
	C350.241669,250.858719 367.527985,255.307861 385.461304,256.960419 
	C389.618408,257.343506 391.143951,258.988892 391.068237,263.274384 
	C390.830017,276.758301 390.987610,290.249115 390.981079,303.737244 
	C390.977203,311.744232 388.383759,314.494720 380.267365,314.581604 
	C368.614197,314.706390 356.958771,314.630646 345.304321,314.630157 
	C257.056213,314.626587 168.808136,314.622009 80.560036,314.613403 
	C68.554832,314.612213 56.961166,313.075592 47.439323,304.808289 
	C38.958328,297.444672 35.098267,287.804657 34.555473,276.395905 
	C34.688881,275.316803 34.444878,274.656647 34.200874,273.996460 
	C34.144848,262.307281 34.088818,250.618118 34.409973,238.467773 
	C35.186378,238.011063 35.585598,238.015518 36.096764,238.234573 
	C36.407864,238.717026 36.665134,238.905609 37.091934,239.231476 
	C37.404354,239.716721 37.663521,239.905609 38.040535,240.153931 
	C38.191132,240.340378 38.282051,240.387589 38.372963,240.434784 
	C38.253635,240.283279 38.134308,240.131790 37.903461,239.763947 
	C37.593109,239.276199 37.334209,239.086960 36.903801,238.765015 
	C36.593483,238.281982 36.336296,238.093292 36.015686,237.619873 
	C35.402824,236.169312 34.795074,235.082932 34.187325,233.996552 
M86.895180,209.705383 
	C86.805641,209.658325 86.716103,209.611267 86.626572,209.564209 
	C86.744110,209.714890 86.861649,209.865570 87.201202,210.448944 
	C87.401405,210.717087 87.659096,210.907364 88.197899,211.451248 
	C88.398453,211.718369 88.655663,211.909088 89.196129,212.453308 
	C89.397835,212.719315 89.655540,212.909424 90.196068,213.453430 
	C90.397873,213.719376 90.655655,213.909409 91.197311,214.453674 
	C91.400223,214.720078 91.659813,214.908340 92.098488,215.296814 
	C92.190529,215.343445 92.282578,215.390060 92.374619,215.436691 
	C92.255936,215.283005 92.137253,215.129318 91.794998,214.543671 
	C91.597420,214.272232 91.340347,214.080582 90.795792,213.540146 
	C90.597038,213.270584 90.339767,213.080017 89.795776,212.540054 
	C89.596916,212.270599 89.339569,212.080170 88.794930,211.540665 
	C88.595222,211.271545 88.336884,211.082596 87.792938,210.544235 
	C87.593216,210.274536 87.334328,210.086105 86.895180,209.705383 
M95.894676,218.708817 
	C95.805916,218.661224 95.717155,218.613617 95.628410,218.566010 
	C95.746796,218.714951 95.865189,218.863892 96.204689,219.447083 
	C96.405243,219.716644 96.664627,219.905350 97.100937,220.292053 
	C97.191452,220.339554 97.281967,220.387039 97.372490,220.434540 
	C97.252708,220.283920 97.132927,220.133301 96.790939,219.549347 
	C96.591896,219.277771 96.332535,219.089127 95.894676,218.708817 
M117.443542,192.790451 
	C117.719147,192.591568 117.905632,192.329315 118.445625,191.792236 
	C118.721962,191.593338 118.908691,191.330704 119.446442,190.792297 
	C119.721420,190.593552 119.907715,190.331680 120.446831,189.794449 
	C120.721687,189.594772 120.907822,189.332184 121.289024,188.897430 
	C121.190491,188.929962 121.091949,188.962479 120.554375,189.210327 
	C120.279961,189.409348 120.092949,189.670883 119.555344,190.210678 
	C119.282005,190.409973 119.095444,190.671249 118.555984,191.210205 
	C118.281769,191.410156 118.095169,191.672470 117.557320,192.212814 
	C117.283302,192.412338 117.096817,192.674194 116.718742,193.107895 
	C116.813049,193.072540 116.907356,193.037201 117.443542,192.790451 
M110.554947,199.208176 
	C110.281990,199.408524 110.095451,199.670441 109.556000,200.208923 
	C109.282372,200.408630 109.095497,200.670303 108.713005,201.105835 
	C108.810707,201.072128 108.908409,201.038422 109.447380,200.792160 
	C109.723351,200.593353 109.909592,200.330872 110.447800,199.792786 
	C110.724693,199.594971 110.911659,199.332962 111.290466,198.896683 
	C111.191460,198.928299 111.092453,198.959900 110.554947,199.208176 
M116.895927,199.708023 
	C116.806435,199.659088 116.716942,199.610153 116.627449,199.561218 
	C116.748192,199.710175 116.868942,199.859131 117.204262,200.447296 
	C117.403839,200.720306 117.664856,200.907822 118.202530,201.448792 
	C118.402534,201.721481 118.663773,201.908768 119.203003,202.449539 
	C119.404053,202.722443 119.666725,202.908234 120.208183,203.446060 
	C120.408852,203.719803 120.671555,203.906082 121.107475,204.285812 
	C121.196075,204.334732 121.284676,204.383652 121.373268,204.432571 
	C121.250473,204.287094 121.127678,204.141602 120.793320,203.553558 
	C120.594818,203.277145 120.332718,203.089569 119.795944,202.548721 
	C119.598267,202.271835 119.336563,202.084244 118.796066,201.546494 
	C118.597328,201.271118 118.335304,201.084686 117.794853,200.547928 
	C117.595802,200.272827 117.333588,200.086731 116.895927,199.708023 
M39.791584,201.551453 
	C39.592819,201.283020 39.335667,201.094055 38.797264,200.548706 
	C38.596523,200.276978 38.336052,200.087234 37.894798,199.706009 
	C37.805328,199.658966 37.715858,199.611923 37.626381,199.564880 
	C37.743927,199.715393 37.861473,199.865891 38.202049,200.452286 
	C38.403072,200.724014 38.663887,200.913406 39.208099,201.450027 
	C39.407543,201.718063 39.665340,201.906128 40.100002,202.293137 
	C40.190777,202.340546 40.281551,202.387955 40.372334,202.435364 
	C40.252831,202.284164 40.133331,202.132965 39.791584,201.551453 
M105.281982,204.894577 
	C105.186356,204.928452 105.090721,204.962341 104.718330,205.107254 
	C104.813507,205.073120 104.908691,205.039001 105.281982,204.894577 
M280.789734,284.555206 
	C280.590363,284.280365 280.327942,284.094635 279.895264,283.715820 
	C279.807770,283.665863 279.720245,283.615906 279.632751,283.565948 
	C279.754547,283.711456 279.876373,283.856934 280.212250,284.441681 
	C280.411102,284.715546 280.672058,284.902893 281.105927,285.287323 
	C281.195496,285.336334 281.285095,285.385376 281.374664,285.434387 
	C281.251068,285.287964 281.127472,285.141541 280.789734,284.555206 
M283.895111,287.711731 
	C283.806396,287.662048 283.717682,287.612366 283.628967,287.562653 
	C283.751007,287.709686 283.873077,287.856720 284.211304,288.442749 
	C284.411469,288.716278 284.673553,288.902802 285.212555,289.441620 
	C285.412109,289.715454 285.673767,289.902283 286.243195,290.414032 
	C286.594452,290.398163 286.945709,290.382294 287.296967,290.366425 
	C286.865387,290.243469 286.433807,290.120514 285.790466,289.555725 
	C285.591278,289.280029 285.328583,289.093964 284.790588,288.555634 
	C284.591614,288.279907 284.329315,288.093079 283.895111,287.711731 
M93.884857,295.757874 
	C93.811028,295.704620 93.737198,295.651367 93.663361,295.598145 
	C93.783470,295.726837 93.903587,295.855560 94.132179,296.213318 
	C94.132179,296.213318 94.414085,296.245819 94.414085,296.245819 
	C94.414085,296.245819 93.984283,296.023376 93.884857,295.757874 
M46.447620,184.795715 
	C46.716896,184.594803 46.905373,184.335220 47.447166,183.795380 
	C47.716686,183.594604 47.905216,183.335007 48.291584,182.898804 
	C48.188786,182.928284 48.085983,182.957764 47.549480,183.209045 
	C47.277672,183.407928 47.088772,183.667221 46.549236,184.208801 
	C46.277519,184.407593 46.088478,184.666702 45.707760,185.105118 
	C45.809772,185.075958 45.911781,185.046814 46.447620,184.795715 
M126.284393,183.895203 
	C126.188934,183.929626 126.093483,183.964066 125.718849,184.108353 
	C125.813103,184.072845 125.907364,184.037338 126.284393,183.895203 
M221.284882,167.896011 
	C221.188904,167.929825 221.092926,167.963638 220.717270,168.107559 
	C220.812378,168.072723 220.907486,168.037888 221.284882,167.896011 
M226.443878,162.790848 
	C226.719482,162.591858 226.905746,162.329437 227.444458,161.791580 
	C227.719940,161.592285 227.906067,161.329651 228.444550,160.791641 
	C228.719955,160.592285 228.905991,160.329620 229.285202,159.896149 
	C229.189011,159.929916 229.092819,159.963684 228.557236,160.212357 
	C228.282852,160.411514 228.095886,160.673157 227.557083,161.212357 
	C227.282791,161.411606 227.095978,161.673309 226.557419,162.212570 
	C226.283188,162.411926 226.096558,162.673737 225.717422,163.108139 
	C225.812302,163.072906 225.907166,163.037674 226.443878,162.790848 
M129.556030,180.210022 
	C129.281601,180.409500 129.094223,180.671280 128.713623,181.108215 
	C128.810684,181.074173 128.907761,181.040131 129.447250,180.793793 
	C129.723328,180.594208 129.909409,180.330978 130.286850,179.895737 
	C130.189880,179.928757 130.092896,179.961777 129.556030,180.210022 
M341.029297,256.393524 
	C339.991058,250.393951 337.438354,247.955185 332.073853,247.837830 
	C326.495392,247.715805 322.865753,250.184174 322.006287,254.684326 
	C320.995026,259.979401 322.716278,263.051239 328.010437,265.988983 
	C328.010437,271.595581 328.010437,277.202179 328.010437,282.961121 
	C333.793182,284.088470 339.182983,285.139221 344.946472,286.262817 
	C344.946472,278.203308 344.735229,270.915588 345.038483,263.649384 
	C345.183075,260.184174 344.220367,258.075531 341.029297,256.393524 
M179.938354,259.023285 
	C181.259964,259.113037 182.589539,259.343567 183.901871,259.269348 
	C191.630722,258.832336 197.492722,253.166901 197.949112,245.778015 
	C198.373062,238.914337 193.029633,231.943192 186.539597,230.892960 
	C178.246399,229.550949 171.333420,233.720551 169.390823,241.566437 
	C168.805557,243.930222 169.114548,246.515411 168.276840,248.953369 
	C163.574722,250.828003 162.336884,254.664246 163.273392,259.082031 
	C164.162064,263.274200 167.378708,265.819183 171.577759,265.629486 
	C175.334808,265.459717 178.700439,263.711426 179.938354,259.023285 
M253.707428,244.075775 
	C253.703415,233.590744 253.730087,223.105484 253.659332,212.620911 
	C253.649704,211.195831 253.659882,209.204910 252.801651,208.439758 
	C245.181915,201.646393 237.368484,195.070297 231.828735,190.327682 
	C231.828735,205.409332 231.780930,224.166595 231.934402,242.922211 
	C231.944824,244.196152 233.183517,245.887283 234.336670,246.651428 
	C239.610626,250.146317 245.028595,253.429810 250.491837,256.623291 
	C250.993271,256.916412 252.716873,256.243286 252.944839,255.657593 
	C253.506912,254.213531 253.528748,252.559219 254.492142,250.962357 
	C255.653061,251.605087 256.813995,252.247803 257.974915,252.890533 
	C258.472168,252.382462 258.969421,251.874374 259.466675,251.366302 
	C257.569244,249.248367 255.671814,247.130447 253.707428,244.075775 
M266.030151,226.663025 
	C266.030151,238.637680 266.030151,250.612335 266.030151,262.813110 
	C273.303070,265.653625 280.447083,268.443817 288.023193,271.402740 
	C288.023193,259.312195 288.050079,247.999084 287.978058,236.686584 
	C287.971497,235.652054 287.653259,234.155289 286.936646,233.661774 
	C280.194763,229.018723 273.334625,224.547318 266.029877,219.709290 
	C266.029877,222.142578 266.029877,223.936203 266.030151,226.663025 
M303.120422,276.194702 
	C308.124634,277.643036 313.128845,279.091370 318.686249,280.699799 
	C318.686249,270.499237 318.727875,261.194427 318.623901,251.891266 
	C318.613098,250.926743 317.983490,249.462097 317.222473,249.093475 
	C311.334320,246.241211 305.343140,243.601669 298.989075,240.717026 
	C298.989075,251.559418 298.872101,261.866180 299.135895,272.163239 
	C299.169159,273.462769 301.203217,274.711090 303.120422,276.194702 
M65.015320,256.699585 
	C71.544937,260.369537 77.700653,260.163696 82.616196,256.110992 
	C87.069527,252.439377 89.048149,246.502350 87.520721,241.394623 
	C85.629654,235.070908 80.867729,231.120041 74.650322,230.716324 
	C68.307442,230.304459 63.081795,233.261108 60.447067,238.752487 
	C57.492828,244.909790 58.748089,250.411743 65.015320,256.699585 
M367.029480,279.482361 
	C367.029480,274.352936 367.029480,269.223511 367.029480,263.927643 
	C362.242981,262.927826 357.794373,261.998627 353.234070,261.046051 
	C353.234070,270.216949 353.234070,278.978271 353.234070,287.810608 
	C357.888062,288.339142 362.256134,288.835236 367.029480,289.377319 
	C367.029480,286.087067 367.029480,283.280762 367.029480,279.482361 
M377.962463,265.724823 
	C376.752686,265.533386 375.542908,265.341980 374.147797,265.121216 
	C374.147797,273.669159 374.147797,281.755402 374.147797,290.258209 
	C377.753265,290.565125 381.252716,290.863007 384.835815,291.167999 
	C384.835815,282.609924 384.835815,274.718414 384.835815,266.416504 
	C382.723022,266.207001 380.784973,266.014862 377.962463,265.724823 
M98.457878,252.445419 
	C98.899628,252.044052 99.341377,251.642685 99.783119,251.241302 
	C99.636230,251.082123 99.489342,250.922928 99.342453,250.763748 
	C99.114388,251.148315 98.886330,251.532883 98.457878,252.445419 
M172.796814,215.444916 
	C172.801971,215.805481 172.797989,216.166916 172.831512,216.524826 
	C172.833908,216.550415 173.111115,216.550262 173.260544,216.562088 
	C173.256332,216.202850 173.252136,215.843597 172.796814,215.444916 
M192.486740,196.714127 
	C192.774506,196.914185 193.062256,197.114243 193.350021,197.314285 
	C193.164398,197.017441 192.978775,196.720596 192.486740,196.714127 
M113.380745,197.199875 
	C113.780792,197.204529 114.180840,197.209183 114.580894,197.213852 
	C114.581543,197.047913 114.593666,196.737915 114.581184,196.736938 
	C114.183144,196.705246 113.782722,196.703522 113.380745,197.199875 
M74.204025,197.613144 
	C74.207733,197.214996 74.215302,196.816650 74.194359,196.419800 
	C74.193794,196.409103 73.740982,196.403946 73.740204,196.414261 
	C73.710556,196.810577 73.709106,197.209000 74.204025,197.613144 
M47.814316,262.740570 
	C47.972652,262.625366 48.130985,262.510132 48.289322,262.394928 
	C48.069080,262.418365 47.848839,262.441803 47.814316,262.740570 
M207.333893,182.123901 
	C207.418228,182.032761 207.502563,181.941605 207.586914,181.850464 
	C207.503403,181.868042 207.419891,181.885605 207.333893,182.123901 
M273.483765,277.595032 
	C273.483765,277.595032 273.410248,277.475159 273.483765,277.595032 
M113.425674,275.502472 
	C113.425674,275.502472 113.527969,275.444489 113.425674,275.502472 
M40.409061,270.482025 
	C40.409061,270.482025 40.522339,270.413757 40.409061,270.482025 
M43.482052,267.589417 
	C43.482052,267.589417 43.413906,267.476135 43.482052,267.589417 
M71.410782,198.483154 
	C71.410782,198.483154 71.523750,198.415359 71.410782,198.483154 
M77.409195,193.482117 
	C77.409195,193.482117 77.522278,193.414124 77.409195,193.482117 
z"/>
<path fill="#030303" opacity="1.000000" stroke="none" 
	d="
M101.809959,335.744507 
	C103.520943,335.444061 105.230988,334.888794 106.943054,334.882507 
	C124.403770,334.818176 141.864807,334.843140 159.769592,334.843140 
	C159.769592,330.296173 159.769592,326.041351 159.769592,321.461182 
	C168.084427,321.461182 175.960342,321.461182 183.592377,321.461182 
	C183.896576,325.807251 184.194443,330.062592 184.510239,334.574402 
	C191.313370,334.574402 197.900085,334.574402 205.148895,334.574402 
	C205.148895,330.276855 205.148895,325.907410 205.148895,321.339722 
	C267.344238,321.339722 328.881592,321.339722 390.704895,321.339722 
	C390.704895,325.694672 390.704895,329.950836 390.704895,334.507568 
	C389.881683,334.630066 388.947632,334.873779 388.008972,334.893280 
	C369.544098,335.276611 351.055267,335.184967 332.621216,336.146515 
	C319.245331,336.844208 305.829742,338.275635 292.630707,340.539368 
	C269.329620,344.535706 246.181213,349.421509 222.963821,353.908722 
	C221.994232,354.096130 220.973526,354.059601 219.976639,354.059540 
	C158.851852,354.055847 97.727058,354.045258 36.602272,354.031189 
	C35.948391,354.031036 35.294525,353.976532 34.326401,353.933380 
	C34.326401,347.669189 34.326401,341.458221 34.326401,334.959717 
	C46.026199,334.959717 57.628963,334.959717 69.824249,334.959717 
	C69.824249,330.329468 69.824249,325.957306 69.824249,321.358795 
	C78.178352,321.358795 85.940651,321.358795 94.381996,321.358795 
	C94.381996,322.948608 94.381996,324.526459 93.868484,326.570648 
	C86.846970,328.060547 82.774155,332.189453 83.308968,337.221344 
	C83.793404,341.779236 87.155708,345.017090 91.472870,345.083038 
	C97.475441,345.174713 101.310318,341.710297 101.809959,335.744507 
M261.207092,339.483215 
	C262.288666,334.617584 260.563721,330.427948 256.447266,328.206146 
	C252.242264,325.936523 248.217911,326.922729 244.985413,329.889465 
	C241.799744,332.813202 241.143860,336.681732 243.078964,340.779510 
	C245.900879,346.755219 256.323090,346.412964 261.207092,339.483215 
M339.732544,330.214630 
	C341.153168,329.018555 342.573792,327.822449 344.409485,326.276886 
	C338.359375,324.441498 336.157867,326.575928 336.323456,332.610718 
	C336.903198,333.201385 337.482910,333.792084 338.062653,334.382751 
	C338.456757,333.150696 338.850891,331.918671 339.732544,330.214630 
z"/>
<path fill="#050505" opacity="1.000000" stroke="none" 
	d="
M111.998535,118.917381 
	C110.543449,116.657043 109.221786,114.294907 107.596420,112.164474 
	C105.912132,109.956818 103.933479,107.973732 102.039497,105.563080 
	C111.939072,105.233742 121.882736,105.233742 131.860458,105.233742 
	C131.157425,94.279945 120.191780,80.400269 105.603409,78.164536 
	C98.108299,77.015869 90.388824,77.260101 82.765900,77.053383 
	C79.932045,76.976540 77.709320,76.596901 77.852638,73.087677 
	C77.986504,69.809647 80.105141,69.050392 82.931335,69.050987 
	C118.888481,69.058517 154.845963,68.986687 190.801727,69.203857 
	C192.541031,69.214363 195.390869,71.464218 195.756134,73.108345 
	C196.459793,76.275818 193.726883,76.956154 190.903244,77.042595 
	C183.281311,77.275925 175.563400,77.025482 168.067719,78.171501 
	C153.099716,80.459953 142.161438,95.119209 141.982330,105.021088 
	C157.582047,105.021088 173.178421,104.951958 188.773407,105.067482 
	C192.906708,105.098099 197.035782,105.696701 201.576462,106.427940 
	C201.984818,107.215424 201.983505,107.609459 201.683075,108.151588 
	C199.261978,110.866554 197.139999,113.433434 194.666321,116.003662 
	C193.205124,117.005836 192.095596,118.004684 190.725098,119.189880 
	C189.621689,120.590790 188.779251,121.805351 187.628052,122.850021 
	C184.192413,121.516891 181.082077,119.398552 177.935944,119.343956 
	C155.960968,118.962662 133.978561,119.008392 111.998535,118.917381 
M140.408325,76.997490 
	C135.037109,76.997490 129.665909,76.997490 123.788940,76.997490 
	C126.658394,79.937698 129.092636,82.165421 131.200516,84.668045 
	C133.238998,87.088264 134.941376,89.791588 136.859604,92.465637 
	C138.987686,89.537689 140.777802,86.750565 142.901245,84.246048 
	C144.948853,81.830994 147.340530,79.707680 150.037506,76.997505 
	C146.646484,76.997505 144.007233,76.997505 140.408325,76.997490 
z"/>
<path fill="#030303" opacity="1.000000" stroke="none" 
	d="
M195.018005,116.000313 
	C197.139999,113.433434 199.261978,110.866554 201.986206,108.132523 
	C203.060928,107.637459 203.533417,107.309540 204.005890,106.981628 
	C206.884384,109.437172 210.606674,111.387901 212.447220,114.464401 
	C215.340317,119.300262 216.965637,124.894585 219.147064,130.553406 
	C217.440125,132.311172 215.551987,133.524124 214.017685,135.084946 
	C209.229187,139.956192 204.574524,144.959000 199.372406,149.626144 
	C195.230148,140.567627 191.583466,131.793762 187.936798,123.019905 
	C188.779251,121.805351 189.621689,120.590790 191.076706,119.186073 
	C192.798859,117.997383 193.908432,116.998848 195.018005,116.000313 
z"/>
<path fill="#4E4E4E" opacity="1.000000" stroke="none" 
	d="
M101.532440,335.726440 
	C101.310318,341.710297 97.475441,345.174713 91.472870,345.083038 
	C87.155708,345.017090 83.793404,341.779236 83.308968,337.221344 
	C82.774155,332.189453 86.846970,328.060547 93.750397,327.012085 
	C94.230896,327.842682 94.315948,328.698212 93.886688,329.753601 
	C89.578430,329.752869 87.312088,331.984558 86.663124,335.259583 
	C86.390869,336.633514 88.165085,338.412964 89.004669,340.004150 
	C89.000420,340.000214 88.991646,339.991425 88.922745,340.366791 
	C90.651810,341.271027 92.617332,342.541748 94.214386,342.181061 
	C98.057289,341.313110 96.848824,337.848846 96.941383,335.155304 
	C98.379227,335.339661 99.817078,335.523987 101.532440,335.726440 
z"/>
<path fill="#575757" opacity="1.000000" stroke="none" 
	d="
M252.196075,186.398773 
	C244.042068,185.858353 241.712753,183.084427 242.170746,174.275543 
	C245.455795,177.915146 248.775604,181.991470 252.196075,186.398773 
z"/>
<path fill="#0D0D0D" opacity="1.000000" stroke="none" 
	d="
M96.665604,335.061523 
	C96.848824,337.848846 98.057289,341.313110 94.214386,342.181061 
	C92.617332,342.541748 90.651810,341.271027 89.293671,340.384033 
	C91.758713,340.843414 93.849854,341.844116 94.912743,338.790009 
	C95.041969,338.418701 94.729301,337.893555 94.565498,337.204437 
	C93.525650,337.789856 92.632751,338.292572 91.459862,338.952911 
	C90.492836,335.062500 91.605476,333.727631 95.233299,334.838684 
	C95.618805,334.881714 96.004311,334.924744 96.665604,335.061523 
z"/>
<path fill="#4E4E4E" opacity="1.000000" stroke="none" 
	d="
M95.099518,334.556946 
	C91.605476,333.727631 90.492836,335.062500 91.459862,338.952911 
	C92.632751,338.292572 93.525650,337.789856 94.565498,337.204437 
	C94.729301,337.893555 95.041969,338.418701 94.912743,338.790009 
	C93.849854,341.844116 91.758713,340.843414 89.362572,340.008667 
	C88.991646,339.991425 89.000420,340.000214 89.009575,339.650421 
	C88.069946,334.343140 89.101028,332.851105 94.071655,331.988800 
	C94.369682,332.750916 94.667709,333.513062 95.099518,334.556946 
z"/>
<path fill="#050505" opacity="1.000000" stroke="none" 
	d="
M85.632202,105.110687 
	C86.067856,110.517052 79.021446,109.337883 77.903061,113.830536 
	C77.726112,112.450943 77.549164,111.071350 77.459045,110.368713 
	C79.506149,108.659378 81.181473,107.260475 82.926285,105.531090 
	C83.750748,105.142494 84.505737,105.084373 85.632202,105.110687 
z"/>
<path fill="#0D0D0D" opacity="1.000000" stroke="none" 
	d="
M94.219650,331.677399 
	C89.101028,332.851105 88.069946,334.343140 89.013824,339.654358 
	C88.165085,338.412964 86.390869,336.633514 86.663124,335.259583 
	C87.312088,331.984558 89.578430,329.752869 93.767929,329.991028 
	C94.231544,330.474426 94.299599,330.920197 94.219650,331.677399 
z"/>
<path fill="#050505" opacity="1.000000" stroke="none" 
	d="
M54.624413,132.002716 
	C55.691757,132.182816 56.478584,132.580246 57.632965,132.988449 
	C58.000515,132.999222 58.028011,133.021301 58.028011,133.021301 
	C56.487713,134.317291 54.947411,135.613297 53.053043,136.898300 
	C53.247284,135.331558 53.795593,133.775818 54.624413,132.002716 
z"/>
<path fill="#050505" opacity="1.000000" stroke="none" 
	d="
M35.984821,238.019974 
	C35.585598,238.015518 35.186378,238.011063 34.487724,238.005096 
	C34.138737,236.932297 34.089184,235.861023 34.113480,234.393158 
	C34.795074,235.082932 35.402824,236.169312 36.005600,237.627808 
	C36.000629,237.999924 35.984821,238.019974 35.984821,238.019974 
z"/>
<path fill="#050505" opacity="1.000000" stroke="none" 
	d="
M35.139503,193.115448 
	C36.224846,192.597458 37.220592,192.339569 38.608189,192.040710 
	C39.000034,191.999725 39.016800,192.012756 39.016800,192.012756 
	C37.947414,192.986038 36.878029,193.959305 35.491333,194.967834 
	C35.132652,194.460587 35.091278,193.918076 35.139503,193.115448 
z"/>
<path fill="#050505" opacity="1.000000" stroke="none" 
	d="
M34.120285,274.266785 
	C34.444878,274.656647 34.688881,275.316803 34.628265,276.077026 
	C34.228996,275.630402 34.134346,275.083771 34.120285,274.266785 
z"/>
<path fill="#0D0D0D" opacity="1.000000" stroke="none" 
	d="
M203.834412,106.742508 
	C203.533417,107.309540 203.060928,107.637459 202.285324,107.984436 
	C201.983505,107.609459 201.984818,107.215424 201.988434,106.525879 
	C202.548141,106.321381 203.105530,106.412384 203.834412,106.742508 
z"/>
<path fill="#FCFCFC" opacity="1.000000" stroke="none" 
	d="
M187.628052,122.850021 
	C191.583466,131.793762 195.230148,140.567627 199.041489,149.670135 
	C200.829773,154.143372 202.504257,158.268890 204.065353,162.436874 
	C206.582214,169.156754 203.058929,174.544281 195.828766,174.725067 
	C188.345459,174.912186 180.853958,174.774323 173.366043,174.774002 
	C150.897079,174.773041 128.428085,174.754837 105.959236,174.803436 
	C104.560760,174.806473 103.163399,175.326828 101.036285,175.702393 
	C98.845161,175.605179 97.383278,175.412109 95.525421,175.125977 
	C93.784904,175.113968 92.440369,175.195007 90.780426,175.085022 
	C89.982346,174.917480 89.499657,174.940979 88.683884,174.859970 
	C87.897697,174.830856 87.444588,174.906265 86.601349,174.903915 
	C85.160576,174.848572 84.109924,174.870987 83.059280,174.893417 
	C76.246582,174.851364 69.433029,174.862671 62.621403,174.753510 
	C54.470585,174.622894 50.893921,169.322250 53.977283,161.753418 
	C59.272240,148.755707 64.717850,135.819382 69.853935,122.429657 
	C69.607643,122.002014 69.649391,121.951691 69.649391,121.951691 
	C70.087967,121.936478 70.526535,121.921272 71.359413,121.529037 
	C72.859474,120.510880 73.965225,119.869743 75.070984,119.228607 
	C87.075699,119.200020 99.080414,119.171432 111.541832,119.030113 
	C133.978561,119.008392 155.960968,118.962662 177.935944,119.343956 
	C181.082077,119.398552 184.192413,121.516891 187.628052,122.850021 
z"/>
<path fill="#FAFAFA" opacity="1.000000" stroke="none" 
	d="
M253.767792,250.989426 
	C253.528748,252.559219 253.506912,254.213531 252.944839,255.657593 
	C252.716873,256.243286 250.993271,256.916412 250.491837,256.623291 
	C245.028595,253.429810 239.610626,250.146317 234.336670,246.651428 
	C233.183517,245.887283 231.944824,244.196152 231.934402,242.922211 
	C231.780930,224.166595 231.828735,205.409332 231.828735,190.327682 
	C237.368484,195.070297 245.181915,201.646393 252.801651,208.439758 
	C253.659882,209.204910 253.649704,211.195831 253.659332,212.620911 
	C253.730087,223.105484 253.703415,233.590744 253.510864,244.808960 
	C253.465469,247.357910 253.616623,249.173676 253.767792,250.989426 
z"/>
<path fill="#FCFCFC" opacity="1.000000" stroke="none" 
	d="
M266.030029,226.196411 
	C266.029877,223.936203 266.029877,222.142578 266.029877,219.709290 
	C273.334625,224.547318 280.194763,229.018723 286.936646,233.661774 
	C287.653259,234.155289 287.971497,235.652054 287.978058,236.686584 
	C288.050079,247.999084 288.023193,259.312195 288.023193,271.402740 
	C280.447083,268.443817 273.303070,265.653625 266.030151,262.813110 
	C266.030151,250.612335 266.030151,238.637680 266.030029,226.196411 
z"/>
<path fill="#F9F9F9" opacity="1.000000" stroke="none" 
	d="
M302.715332,276.088928 
	C301.203217,274.711090 299.169159,273.462769 299.135895,272.163239 
	C298.872101,261.866180 298.989075,251.559418 298.989075,240.717026 
	C305.343140,243.601669 311.334320,246.241211 317.222473,249.093475 
	C317.983490,249.462097 318.613098,250.926743 318.623901,251.891266 
	C318.727875,261.194427 318.686249,270.499237 318.686249,280.699799 
	C313.128845,279.091370 308.124634,277.643036 302.715332,276.088928 
z"/>
<path fill="#FCFCFC" opacity="1.000000" stroke="none" 
	d="
M64.722397,256.453674 
	C58.748089,250.411743 57.492828,244.909790 60.447067,238.752487 
	C63.081795,233.261108 68.307442,230.304459 74.650322,230.716324 
	C80.867729,231.120041 85.629654,235.070908 87.520721,241.394623 
	C89.048149,246.502350 87.069527,252.439377 82.616196,256.110992 
	C77.700653,260.163696 71.544937,260.369537 64.722397,256.453674 
z"/>
<path fill="#FCFCFC" opacity="1.000000" stroke="none" 
	d="
M169.013885,248.999176 
	C169.114548,246.515411 168.805557,243.930222 169.390823,241.566437 
	C171.333420,233.720551 178.246399,229.550949 186.539597,230.892960 
	C193.029633,231.943192 198.373062,238.914337 197.949112,245.778015 
	C197.492722,253.166901 191.630722,258.832336 183.901871,259.269348 
	C182.589539,259.343567 181.259964,259.113037 179.237122,258.901794 
	C178.008255,258.556824 177.480606,258.333374 176.721802,257.932312 
	C175.997070,257.466095 175.503479,257.177460 174.870193,256.585815 
	C173.480927,255.189453 172.231354,254.096100 170.968018,252.710312 
	C170.639435,251.942993 170.324631,251.468109 169.985931,250.688416 
	C169.645996,249.922134 169.329941,249.460663 169.013885,248.999176 
z"/>
<path fill="#F9F9F9" opacity="1.000000" stroke="none" 
	d="
M340.865814,257.177979 
	C344.220367,258.075531 345.183075,260.184174 345.038483,263.649384 
	C344.735229,270.915588 344.946472,278.203308 344.946472,286.262817 
	C339.182983,285.139221 333.793182,284.088470 328.010437,282.961121 
	C328.010437,277.202179 328.010437,271.595581 327.998779,265.152008 
	C327.979584,263.539246 327.972046,262.763489 328.032593,261.537811 
	C328.100677,258.690643 328.100677,256.293335 328.100677,253.350510 
	C332.029205,254.610855 335.490265,255.721237 339.258850,256.950073 
	C339.999512,257.105042 340.432678,257.141510 340.865814,257.177979 
z"/>
<path fill="#FDFDFD" opacity="1.000000" stroke="none" 
	d="
M367.029480,279.978424 
	C367.029480,283.280762 367.029480,286.087067 367.029480,289.377319 
	C362.256134,288.835236 357.888062,288.339142 353.234070,287.810608 
	C353.234070,278.978271 353.234070,270.216949 353.234070,261.046051 
	C357.794373,261.998627 362.242981,262.927826 367.029480,263.927643 
	C367.029480,269.223511 367.029480,274.352936 367.029480,279.978424 
z"/>
<path fill="#FCFCFC" opacity="1.000000" stroke="none" 
	d="
M378.404663,265.773743 
	C380.784973,266.014862 382.723022,266.207001 384.835815,266.416504 
	C384.835815,274.718414 384.835815,282.609924 384.835815,291.167999 
	C381.252716,290.863007 377.753265,290.565125 374.147797,290.258209 
	C374.147797,281.755402 374.147797,273.669159 374.147797,265.121216 
	C375.542908,265.341980 376.752686,265.533386 378.404663,265.773743 
z"/>
<path fill="#4E4E4E" opacity="1.000000" stroke="none" 
	d="
M95.921394,175.219040 
	C97.383278,175.412109 98.845161,175.605179 100.667984,175.929489 
	C102.069557,181.797394 99.866409,184.786865 93.533447,186.231445 
	C89.063736,187.251007 85.163605,184.827286 83.847992,180.080078 
	C83.456329,178.666824 83.409218,177.158112 83.131760,175.293274 
	C84.109924,174.870987 85.160576,174.848572 86.543152,175.254333 
	C87.770340,178.221252 88.186592,181.144897 89.777435,183.124725 
	C90.495628,184.018509 94.964859,183.590973 95.279625,182.794113 
	C96.171272,180.536789 95.797043,177.779449 95.921394,175.219040 
z"/>
<path fill="#525252" opacity="1.000000" stroke="none" 
	d="
M340.947571,256.785767 
	C340.432678,257.141510 339.999512,257.105042 339.285950,256.585999 
	C337.484406,254.301636 336.282074,251.975433 334.371674,250.814163 
	C331.044708,248.791809 326.844757,250.390472 325.096283,253.904327 
	C323.310608,257.492859 324.313293,260.249268 327.964478,261.987701 
	C327.972046,262.763489 327.979584,263.539246 327.908691,264.696533 
	C322.716278,263.051239 320.995026,259.979401 322.006287,254.684326 
	C322.865753,250.184174 326.495392,247.715805 332.073853,247.837830 
	C337.438354,247.955185 339.991058,250.393951 340.947571,256.785767 
z"/>
<path fill="#525252" opacity="1.000000" stroke="none" 
	d="
M176.952942,258.109924 
	C177.480606,258.333374 178.008255,258.556824 178.787659,258.934937 
	C178.700439,263.711426 175.334808,265.459717 171.577759,265.629486 
	C167.378708,265.819183 164.162064,263.274200 163.273392,259.082031 
	C162.336884,254.664246 163.574722,250.828003 168.645355,248.976273 
	C169.329941,249.460663 169.645996,249.922134 169.647568,250.804947 
	C168.516891,252.023270 167.110565,252.746521 166.999954,253.631683 
	C166.716965,255.896378 166.256943,258.694275 167.301529,260.401794 
	C168.211487,261.889191 171.273331,263.094513 173.025040,262.724335 
	C174.589523,262.393738 175.662872,259.739075 176.952942,258.109924 
z"/>
<path fill="#777777" opacity="1.000000" stroke="none" 
	d="
M254.129959,250.975891 
	C253.616623,249.173676 253.465469,247.357910 253.544342,245.277344 
	C255.671814,247.130447 257.569244,249.248367 259.466675,251.366302 
	C258.969421,251.874374 258.472168,252.382462 257.974915,252.890533 
	C256.813995,252.247803 255.653061,251.605087 254.129959,250.975891 
z"/>
<path fill="#050505" opacity="1.000000" stroke="none" 
	d="
M75.050957,118.870529 
	C73.965225,119.869743 72.859474,120.510880 71.441849,121.250786 
	C71.752090,119.949905 72.374207,118.550262 72.996330,117.150620 
	C73.674530,117.604561 74.352730,118.058510 75.050957,118.870529 
z"/>
<path fill="#4E4E4E" opacity="1.000000" stroke="none" 
	d="
M98.558075,252.181427 
	C98.886330,251.532883 99.114388,251.148315 99.342453,250.763748 
	C99.489342,250.922928 99.636230,251.082123 99.783119,251.241302 
	C99.341377,251.642685 98.899628,252.044052 98.558075,252.181427 
z"/>
<path fill="#3A3A3A" opacity="1.000000" stroke="none" 
	d="
M173.022369,215.464630 
	C173.252136,215.843597 173.256332,216.202850 173.260544,216.562088 
	C173.111115,216.550262 172.833908,216.550415 172.831512,216.524826 
	C172.797989,216.166916 172.801971,215.805481 173.022369,215.464630 
z"/>
<path fill="#3A3A3A" opacity="1.000000" stroke="none" 
	d="
M192.639954,196.568939 
	C192.978775,196.720596 193.164398,197.017441 193.350021,197.314285 
	C193.062256,197.114243 192.774506,196.914185 192.639954,196.568939 
z"/>
<path fill="#0D0D0D" opacity="1.000000" stroke="none" 
	d="
M113.381699,196.948563 
	C113.782722,196.703522 114.183144,196.705246 114.581184,196.736938 
	C114.593666,196.737915 114.581543,197.047913 114.580887,197.213852 
	C114.180840,197.209183 113.780792,197.204529 113.381699,196.948563 
z"/>
<path fill="#050505" opacity="1.000000" stroke="none" 
	d="
M73.953979,197.610138 
	C73.709106,197.209000 73.710556,196.810577 73.740204,196.414261 
	C73.740982,196.403946 74.193794,196.409103 74.194359,196.419800 
	C74.215302,196.816650 74.207733,197.214996 73.953979,197.610138 
z"/>
<path fill="#0D0D0D" opacity="1.000000" stroke="none" 
	d="
M286.002228,289.997559 
	C286.433807,290.120514 286.865387,290.243469 287.296967,290.366425 
	C286.945709,290.382294 286.594452,290.398163 286.121582,290.207031 
	C286.000000,290.000000 286.002228,289.997559 286.002228,289.997559 
z"/>
<path fill="#050505" opacity="1.000000" stroke="none" 
	d="
M47.721458,262.602905 
	C47.848839,262.441803 48.069080,262.418365 48.289322,262.394928 
	C48.130985,262.510132 47.972652,262.625366 47.721458,262.602905 
z"/>
<path fill="#3A3A3A" opacity="1.000000" stroke="none" 
	d="
M207.335144,182.013535 
	C207.419891,181.885605 207.503403,181.868042 207.586914,181.850464 
	C207.502563,181.941605 207.418228,182.032761 207.335144,182.013535 
z"/>
<path fill="#0D0D0D" opacity="1.000000" stroke="none" 
	d="
M228.996643,159.997467 
	C229.092819,159.963684 229.189011,159.929916 229.142609,159.948074 
	C229.000000,160.000000 228.996643,159.997467 228.996643,159.997467 
z"/>
<path fill="#0D0D0D" opacity="1.000000" stroke="none" 
	d="
M273.447021,277.535095 
	C273.410248,277.475159 273.483765,277.595032 273.447021,277.535095 
z"/>
<path fill="#3A3A3A" opacity="1.000000" stroke="none" 
	d="
M113.476822,275.473480 
	C113.527969,275.444489 113.425674,275.502472 113.476822,275.473480 
z"/>
<path fill="#0D0D0D" opacity="1.000000" stroke="none" 
	d="
M128.993896,180.995392 
	C129.094223,180.671280 129.281601,180.409500 129.778015,180.105011 
	C130.000000,180.000000 130.005493,180.004135 130.005493,180.004135 
	C129.909409,180.330978 129.723328,180.594208 129.223633,180.896896 
	C129.000000,181.000000 128.993896,180.995392 128.993896,180.995392 
z"/>
<path fill="#050505" opacity="1.000000" stroke="none" 
	d="
M40.465698,270.447876 
	C40.522339,270.413757 40.409061,270.482025 40.465698,270.447876 
z"/>
<path fill="#050505" opacity="1.000000" stroke="none" 
	d="
M43.447979,267.532776 
	C43.413906,267.476135 43.482052,267.589417 43.447979,267.532776 
z"/>
<path fill="#050505" opacity="1.000000" stroke="none" 
	d="
M58.958393,131.968613 
	C59.073486,131.651566 59.266087,131.392029 59.769051,131.094269 
	C60.001911,130.998535 60.040478,131.030746 60.040478,131.030746 
	C59.925362,131.347626 59.733017,131.607300 59.230492,131.905441 
	C58.997540,132.001099 58.958393,131.968613 58.958393,131.968613 
z"/>
<path fill="#050505" opacity="1.000000" stroke="none" 
	d="
M41.982380,188.986649 
	C42.085705,188.957520 42.189026,188.928406 42.145981,188.949646 
	C41.999615,189.000031 41.982380,188.986649 41.982380,188.986649 
z"/>
<path fill="#0D0D0D" opacity="1.000000" stroke="none" 
	d="
M120.993416,188.994995 
	C121.091949,188.962479 121.190491,188.929962 121.144516,188.948715 
	C121.000000,189.000000 120.993416,188.994995 120.993416,188.994995 
z"/>
<path fill="#050505" opacity="1.000000" stroke="none" 
	d="
M57.989422,132.985504 
	C58.089840,132.660583 58.276669,132.404282 58.748604,132.085754 
	C58.958393,131.968613 58.997540,132.001099 59.014244,132.020813 
	C58.911289,132.348389 58.718819,132.600677 58.240776,132.909363 
	C58.028011,133.021301 58.000515,132.999222 57.989422,132.985504 
z"/>
<path fill="#0D0D0D" opacity="1.000000" stroke="none" 
	d="
M279.998169,284.002441 
	C279.876373,283.856934 279.754547,283.711456 279.632751,283.565948 
	C279.720245,283.615906 279.807770,283.665863 279.947632,283.857910 
	C280.000000,284.000000 279.998169,284.002441 279.998169,284.002441 
z"/>
<path fill="#0D0D0D" opacity="1.000000" stroke="none" 
	d="
M229.001343,160.001831 
	C228.905991,160.329620 228.719955,160.592285 228.222275,160.895813 
	C228.000000,161.000000 227.996338,160.997253 227.996338,160.997253 
	C228.095886,160.673157 228.282852,160.411514 228.776947,160.104919 
	C228.996643,159.997467 229.000000,160.000000 229.001343,160.001831 
z"/>
<path fill="#0D0D0D" opacity="1.000000" stroke="none" 
	d="
M226.996674,161.997467 
	C227.095978,161.673309 227.282791,161.411606 227.776703,161.104797 
	C227.996338,160.997253 228.000000,161.000000 228.001404,161.001831 
	C227.906067,161.329651 227.719940,161.592285 227.222229,161.895782 
	C227.000000,162.000000 226.996674,161.997467 226.996674,161.997467 
z"/>
<path fill="#0D0D0D" opacity="1.000000" stroke="none" 
	d="
M225.997559,162.998001 
	C226.096558,162.673737 226.283188,162.411926 226.777039,162.105011 
	C226.996674,161.997467 227.000000,162.000000 227.001343,162.001801 
	C226.905746,162.329437 226.719482,162.591858 226.221939,162.895416 
	C226.000000,163.000000 225.997559,162.998001 225.997559,162.998001 
z"/>
<path fill="#050505" opacity="1.000000" stroke="none" 
	d="
M40.982899,189.987061 
	C41.088768,189.667404 41.277496,189.408066 41.765728,189.097839 
	C41.982380,188.986649 41.999615,189.000031 42.006508,189.008728 
	C41.905437,189.335632 41.716698,189.595032 41.223412,189.897842 
	C40.999638,190.000015 40.982899,189.987061 40.982899,189.987061 
z"/>
<path fill="#0D0D0D" opacity="1.000000" stroke="none" 
	d="
M226.001022,163.001221 
	C225.907166,163.037674 225.812302,163.072906 225.857483,163.053070 
	C225.997559,162.998001 226.000000,163.000000 226.001022,163.001221 
z"/>
<path fill="#0D0D0D" opacity="1.000000" stroke="none" 
	d="
M121.002609,189.003357 
	C120.907822,189.332184 120.721687,189.594772 120.223419,189.897217 
	C120.000000,190.000000 119.993347,189.994919 119.993347,189.994919 
	C120.092949,189.670883 120.279961,189.409348 120.773895,189.102661 
	C120.993416,188.994995 121.000000,189.000000 121.002609,189.003357 
z"/>
<path fill="#0D0D0D" opacity="1.000000" stroke="none" 
	d="
M220.996948,167.997437 
	C221.092926,167.963638 221.188904,167.929825 221.142441,167.947998 
	C221.000000,168.000000 220.996948,167.997437 220.996948,167.997437 
z"/>
<path fill="#050505" opacity="1.000000" stroke="none" 
	d="
M38.014984,239.980286 
	C38.134308,240.131790 38.253635,240.283279 38.372963,240.434784 
	C38.282051,240.387589 38.191132,240.340378 38.050175,240.146301 
	C38.000137,239.999405 38.014984,239.980286 38.014984,239.980286 
z"/>
<path fill="#050505" opacity="1.000000" stroke="none" 
	d="
M61.035900,130.027542 
	C60.923283,130.341858 60.733109,130.598770 60.252930,130.914505 
	C60.040478,131.030746 60.001911,130.998535 59.985420,130.979019 
	C60.087070,130.648544 60.278370,130.392181 60.771816,130.094315 
	C61.000816,129.998215 61.035900,130.027542 61.035900,130.027542 
z"/>
<path fill="#0D0D0D" opacity="1.000000" stroke="none" 
	d="
M129.002411,181.003052 
	C128.907761,181.040131 128.810684,181.074173 128.853760,181.051804 
	C128.993896,180.995392 129.000000,181.000000 129.002411,181.003052 
z"/>
<path fill="#050505" opacity="1.000000" stroke="none" 
	d="
M47.983181,182.987228 
	C48.085983,182.957764 48.188786,182.928284 48.145706,182.949432 
	C47.999832,183.000076 47.983181,182.987228 47.983181,182.987228 
z"/>
<path fill="#050505" opacity="1.000000" stroke="none" 
	d="
M48.006294,183.008331 
	C47.905216,183.335007 47.716686,183.594604 47.223381,183.897690 
	C46.999599,184.000000 46.982777,183.986923 46.982777,183.986923 
	C47.088772,183.667221 47.277672,183.407928 47.766331,183.098145 
	C47.983181,182.987228 47.999832,183.000076 48.006294,183.008331 
z"/>
<path fill="#0D0D0D" opacity="1.000000" stroke="none" 
	d="
M125.998024,183.998489 
	C126.093483,183.964066 126.188934,183.929626 126.142197,183.947601 
	C126.000000,184.000000 125.998024,183.998489 125.998024,183.998489 
z"/>
<path fill="#050505" opacity="1.000000" stroke="none" 
	d="
M45.982105,184.986145 
	C46.088478,184.666702 46.277519,184.407593 46.766006,184.097870 
	C46.982777,183.986923 46.999599,184.000000 47.006325,184.008484 
	C46.905373,184.335220 46.716896,184.594803 46.223709,184.897903 
	C45.999794,185.000092 45.982105,184.986145 45.982105,184.986145 
z"/>
<path fill="#050505" opacity="1.000000" stroke="none" 
	d="
M69.421066,122.061417 
	C69.649391,121.951691 69.607643,122.002014 69.636215,121.990555 
	C69.507439,122.043114 69.350090,122.107124 69.421066,122.061417 
z"/>
<path fill="#0D0D0D" opacity="1.000000" stroke="none" 
	d="
M126.000809,184.000916 
	C125.907364,184.037338 125.813103,184.072845 125.858437,184.053421 
	C125.998024,183.998489 126.000000,184.000000 126.000809,184.000916 
z"/>
<path fill="#050505" opacity="1.000000" stroke="none" 
	d="
M60.986118,129.980682 
	C61.082592,129.940979 61.193764,129.918793 61.170418,129.962082 
	C61.035900,130.027542 61.000816,129.998215 60.986118,129.980682 
z"/>
<path fill="#050505" opacity="1.000000" stroke="none" 
	d="
M37.015244,238.979889 
	C37.334209,239.086960 37.593109,239.276199 37.903465,239.763947 
	C38.014984,239.980286 38.000137,239.999405 37.990501,240.007050 
	C37.663521,239.905609 37.404354,239.716721 37.101753,239.223694 
	C37.000145,238.999390 37.015244,238.979889 37.015244,238.979889 
z"/>
<path fill="#3A3A3A" opacity="1.000000" stroke="none" 
	d="
M93.984283,296.023376 
	C93.984283,296.023376 94.414085,296.245819 94.414085,296.245819 
	C94.414085,296.245819 94.132179,296.213318 94.066559,296.107025 
	C94.000946,296.000732 93.984283,296.023376 93.984283,296.023376 
z"/>
<path fill="#3A3A3A" opacity="1.000000" stroke="none" 
	d="
M94.012329,295.992493 
	C93.903587,295.855560 93.783470,295.726837 93.663361,295.598145 
	C93.737198,295.651367 93.811028,295.704620 93.934570,295.890625 
	C93.984283,296.023376 94.000946,296.000732 94.012329,295.992493 
z"/>
<path fill="#050505" opacity="1.000000" stroke="none" 
	d="
M46.006794,185.008881 
	C45.911781,185.046814 45.809772,185.075958 45.844933,185.045624 
	C45.982105,184.986145 45.999794,185.000092 46.006794,185.008881 
z"/>
<path fill="#0D0D0D" opacity="1.000000" stroke="none" 
	d="
M285.002441,288.997559 
	C285.328583,289.093964 285.591278,289.280029 285.896362,289.776642 
	C286.002228,289.997559 286.000000,290.000000 285.998779,290.001038 
	C285.673767,289.902283 285.412109,289.715454 285.106262,289.220825 
	C285.000000,289.000000 285.002441,288.997559 285.002441,288.997559 
z"/>
<path fill="#0D0D0D" opacity="1.000000" stroke="none" 
	d="
M284.998779,289.001160 
	C284.673553,288.902802 284.411469,288.716278 284.105652,288.221375 
	C284.000000,288.000000 284.003723,287.995117 284.003723,287.995117 
	C284.329315,288.093079 284.591614,288.279907 284.896515,288.776611 
	C285.002441,288.997559 285.000000,289.000000 284.998779,289.001160 
z"/>
<path fill="#0D0D0D" opacity="1.000000" stroke="none" 
	d="
M283.997559,288.001892 
	C283.873077,287.856720 283.751007,287.709686 283.628967,287.562653 
	C283.717682,287.612366 283.806396,287.662048 283.949402,287.853424 
	C284.003723,287.995117 284.000000,288.000000 283.997559,288.001892 
z"/>
<path fill="#0D0D0D" opacity="1.000000" stroke="none" 
	d="
M281.003845,284.995117 
	C281.127472,285.141541 281.251068,285.287964 281.374664,285.434387 
	C281.285095,285.385376 281.195496,285.336334 281.052979,285.143677 
	C281.000000,285.000000 281.003845,284.995117 281.003845,284.995117 
z"/>
<path fill="#0D0D0D" opacity="1.000000" stroke="none" 
	d="
M280.997559,285.001892 
	C280.672058,284.902893 280.411102,284.715546 280.105225,284.222046 
	C279.998169,284.002441 280.000000,284.000000 280.001221,283.999023 
	C280.327942,284.094635 280.590363,284.280365 280.896790,284.775146 
	C281.003845,284.995117 281.000000,285.000000 280.997559,285.001892 
z"/>
<path fill="#050505" opacity="1.000000" stroke="none" 
	d="
M38.015854,199.979477 
	C38.336052,200.087234 38.596523,200.276978 38.898613,200.774612 
	C38.999966,201.000519 38.984493,201.020462 38.984493,201.020462 
	C38.663887,200.913406 38.403072,200.724014 38.100773,200.226105 
	C37.999496,199.999924 38.015854,199.979477 38.015854,199.979477 
z"/>
<path fill="#050505" opacity="1.000000" stroke="none" 
	d="
M104.995094,204.996216 
	C105.090721,204.962341 105.186356,204.928452 105.140991,204.947296 
	C105.000000,205.000000 104.995094,204.996216 104.995094,204.996216 
z"/>
<path fill="#0D0D0D" opacity="1.000000" stroke="none" 
	d="
M120.007019,202.990845 
	C120.332718,203.089569 120.594818,203.277145 120.896660,203.776779 
	C121.000000,204.000000 120.996292,204.004883 120.996292,204.004883 
	C120.671555,203.906082 120.408852,203.719803 120.104111,203.222992 
	C120.000046,202.999939 120.007019,202.990845 120.007019,202.990845 
z"/>
<path fill="#0D0D0D" opacity="1.000000" stroke="none" 
	d="
M119.010826,201.985962 
	C119.336563,202.084244 119.598267,202.271835 119.901482,202.769775 
	C120.007019,202.990845 120.000046,202.999939 119.995537,203.003418 
	C119.666725,202.908234 119.404053,202.722443 119.101501,202.224701 
	C119.000000,201.999847 119.010826,201.985962 119.010826,201.985962 
z"/>
<path fill="#050505" opacity="1.000000" stroke="none" 
	d="
M40.013832,201.981766 
	C40.133331,202.132965 40.252831,202.284164 40.372330,202.435364 
	C40.281551,202.387955 40.190777,202.340546 40.049839,202.146545 
	C39.999676,201.999939 40.013828,201.981766 40.013832,201.981766 
z"/>
<path fill="#0D0D0D" opacity="1.000000" stroke="none" 
	d="
M118.993118,202.005264 
	C118.663773,201.908768 118.402534,201.721481 118.101265,201.224365 
	C118.000000,200.999924 118.009979,200.987183 118.009979,200.987183 
	C118.335304,201.084686 118.597328,201.271118 118.903442,201.766235 
	C119.010826,201.985962 119.000000,201.999847 118.993118,202.005264 
z"/>
<path fill="#0D0D0D" opacity="1.000000" stroke="none" 
	d="
M109.006104,201.004700 
	C108.908409,201.038422 108.810707,201.072128 108.856506,201.052917 
	C109.000000,201.000000 109.006104,201.004700 109.006104,201.004700 
z"/>
<path fill="#050505" opacity="1.000000" stroke="none" 
	d="
M39.990582,202.007080 
	C39.665340,201.906128 39.407543,201.718063 39.096298,201.235245 
	C38.984493,201.020462 38.999966,201.000519 39.010044,200.992523 
	C39.335667,201.094055 39.592819,201.283020 39.902706,201.766602 
	C40.013828,201.981766 39.999676,201.999939 39.990582,202.007080 
z"/>
<path fill="#0D0D0D" opacity="1.000000" stroke="none" 
	d="
M117.993652,201.004883 
	C117.664856,200.907822 117.403839,200.720306 117.102127,200.223648 
	C117.000000,200.000000 117.008209,199.989624 117.008209,199.989624 
	C117.333588,200.086731 117.595802,200.272827 117.902420,200.767548 
	C118.009979,200.987183 118.000000,200.999924 117.993652,201.004883 
z"/>
<path fill="#0D0D0D" opacity="1.000000" stroke="none" 
	d="
M110.006104,200.004730 
	C109.909592,200.330872 109.723351,200.593353 109.226746,200.898438 
	C109.006104,201.004700 109.000000,201.000000 108.997696,200.996979 
	C109.095497,200.670303 109.282372,200.408630 109.778000,200.104462 
	C110.000000,200.000000 110.006104,200.004730 110.006104,200.004730 
z"/>
<path fill="#0D0D0D" opacity="1.000000" stroke="none" 
	d="
M121.002441,203.998062 
	C121.127678,204.141602 121.250473,204.287094 121.373276,204.432556 
	C121.284676,204.383652 121.196075,204.334732 121.051880,204.145355 
	C120.996292,204.004883 121.000000,204.000000 121.002441,203.998062 
z"/>
<path fill="#0D0D0D" opacity="1.000000" stroke="none" 
	d="
M116.994843,200.004044 
	C116.868942,199.859131 116.748192,199.710175 116.627449,199.561218 
	C116.716942,199.610153 116.806435,199.659088 116.952072,199.848816 
	C117.008209,199.989624 117.000000,200.000000 116.994843,200.004044 
z"/>
<path fill="#0D0D0D" opacity="1.000000" stroke="none" 
	d="
M109.997673,199.996948 
	C110.095451,199.670441 110.281990,199.408524 110.777496,199.104095 
	C111.000046,199.000000 111.008698,199.006790 111.008698,199.006790 
	C110.911659,199.332962 110.724693,199.594971 110.226952,199.898758 
	C110.006104,200.004730 110.000000,200.000000 109.997673,199.996948 
z"/>
<path fill="#050505" opacity="1.000000" stroke="none" 
	d="
M37.989258,200.008163 
	C37.861473,199.865891 37.743927,199.715393 37.626381,199.564880 
	C37.715858,199.611923 37.805328,199.658966 37.955326,199.842743 
	C38.015854,199.979477 37.999496,199.999924 37.989258,200.008163 
z"/>
<path fill="#0D0D0D" opacity="1.000000" stroke="none" 
	d="
M110.996750,198.995758 
	C111.092453,198.959900 111.191460,198.928299 111.149582,198.951736 
	C111.008698,199.006790 111.000046,199.000000 110.996750,198.995758 
z"/>
<path fill="#050505" opacity="1.000000" stroke="none" 
	d="
M71.467270,198.449249 
	C71.523750,198.415359 71.410782,198.483154 71.467270,198.449249 
z"/>
<path fill="#0D0D0D" opacity="1.000000" stroke="none" 
	d="
M119.005798,191.004364 
	C118.908691,191.330704 118.721962,191.593338 118.222809,191.896118 
	C118.000000,192.000000 117.996185,191.997116 117.996185,191.997116 
	C118.095169,191.672470 118.281769,191.410156 118.777992,191.105103 
	C119.000000,191.000000 119.005798,191.004364 119.005798,191.004364 
z"/>
<path fill="#0D0D0D" opacity="1.000000" stroke="none" 
	d="
M118.001495,192.001831 
	C117.905632,192.329315 117.719147,192.591568 117.221771,192.895233 
	C117.000000,193.000000 116.997864,192.998398 116.997864,192.998398 
	C117.096817,192.674194 117.283302,192.412338 117.776749,192.104965 
	C117.996185,191.997116 118.000000,192.000000 118.001495,192.001831 
z"/>
<path fill="#050505" opacity="1.000000" stroke="none" 
	d="
M77.465736,193.448120 
	C77.522278,193.414124 77.409195,193.482117 77.465736,193.448120 
z"/>
<path fill="#050505" opacity="1.000000" stroke="none" 
	d="
M38.993450,191.991333 
	C39.094280,191.664398 39.282845,191.404800 39.776291,191.101929 
	C40.000019,190.999741 40.016674,191.012619 40.016674,191.012619 
	C39.910480,191.332108 39.721634,191.591370 39.233467,191.901596 
	C39.016800,192.012756 39.000034,191.999725 38.993450,191.991333 
z"/>
<path fill="#050505" opacity="1.000000" stroke="none" 
	d="
M36.010715,237.991989 
	C36.336296,238.093292 36.593483,238.281982 36.903801,238.765015 
	C37.015244,238.979889 37.000145,238.999390 36.990326,239.007172 
	C36.665134,238.905609 36.407864,238.717026 36.096764,238.234573 
	C35.984821,238.019974 36.000629,237.999924 36.010715,237.991989 
z"/>
<path fill="#050505" opacity="1.000000" stroke="none" 
	d="
M39.993515,190.991394 
	C40.094421,190.666046 40.282658,190.408020 40.767307,190.097992 
	C40.982899,189.987061 40.999638,190.000015 41.006302,190.008484 
	C40.905155,190.333725 40.716763,190.591644 40.232231,190.901657 
	C40.016674,191.012619 40.000019,190.999741 39.993515,190.991394 
z"/>
<path fill="#0D0D0D" opacity="1.000000" stroke="none" 
	d="
M221.001297,168.001526 
	C220.907486,168.037888 220.812378,168.072723 220.857117,168.052490 
	C220.996948,167.997437 221.000000,168.000000 221.001297,168.001526 
z"/>
<path fill="#0D0D0D" opacity="1.000000" stroke="none" 
	d="
M120.002663,190.003357 
	C119.907715,190.331680 119.721420,190.593552 119.226120,190.898331 
	C119.005798,191.004364 119.000000,191.000000 118.997833,190.997253 
	C119.095444,190.671249 119.282005,190.409973 119.774345,190.102798 
	C119.993347,189.994919 120.000000,190.000000 120.002663,190.003357 
z"/>
<path fill="#0D0D0D" opacity="1.000000" stroke="none" 
	d="
M129.997955,179.997406 
	C130.092896,179.961777 130.189880,179.928757 130.146179,179.949936 
	C130.005493,180.004135 130.000000,180.000000 129.997955,179.997406 
z"/>
<path fill="#050505" opacity="1.000000" stroke="none" 
	d="
M97.013138,219.982681 
	C97.132927,220.133301 97.252708,220.283920 97.372482,220.434540 
	C97.281967,220.387039 97.191452,220.339554 97.050415,220.145935 
	C96.999886,219.999832 97.013138,219.982681 97.013138,219.982681 
z"/>
<path fill="#050505" opacity="1.000000" stroke="none" 
	d="
M96.991371,220.006516 
	C96.664627,219.905350 96.405243,219.716644 96.102310,219.223465 
	C95.999931,218.999847 96.012848,218.983398 96.012848,218.983398 
	C96.332535,219.089127 96.591896,219.277771 96.902039,219.766022 
	C97.013138,219.982681 96.999886,219.999832 96.991371,220.006516 
z"/>
<path fill="#050505" opacity="1.000000" stroke="none" 
	d="
M95.991760,219.006348 
	C95.865189,218.863892 95.746796,218.714951 95.628403,218.566010 
	C95.717155,218.613617 95.805916,218.661224 95.953766,218.846100 
	C96.012848,218.983398 95.999931,218.999847 95.991760,219.006348 
z"/>
<path fill="#0D0D0D" opacity="1.000000" stroke="none" 
	d="
M117.000832,193.000931 
	C116.907356,193.037201 116.813049,193.072540 116.858307,193.053146 
	C116.997864,192.998398 117.000000,193.000000 117.000832,193.000931 
z"/>
<path fill="#050505" opacity="1.000000" stroke="none" 
	d="
M92.018562,214.975632 
	C92.137253,215.129318 92.255936,215.283005 92.374619,215.436691 
	C92.282578,215.390060 92.190529,215.343445 92.049103,215.148132 
	C91.999725,214.999451 92.018562,214.975632 92.018562,214.975632 
z"/>
<path fill="#050505" opacity="1.000000" stroke="none" 
	d="
M91.987900,215.008957 
	C91.659813,214.908340 91.400223,214.720078 91.098358,214.226288 
	C90.999397,213.998901 91.023788,213.968704 91.023788,213.968704 
	C91.340347,214.080582 91.597420,214.272232 91.906784,214.759644 
	C92.018562,214.975632 91.999725,214.999451 91.987900,215.008957 
z"/>
<path fill="#050505" opacity="1.000000" stroke="none" 
	d="
M90.984406,214.011200 
	C90.655655,213.909409 90.397873,213.719376 90.097900,213.226044 
	C89.999733,212.998642 90.023987,212.968445 90.023987,212.968445 
	C90.339767,213.080017 90.597038,213.270584 90.909790,213.754425 
	C91.023788,213.968704 90.999397,213.998901 90.984406,214.011200 
z"/>
<path fill="#050505" opacity="1.000000" stroke="none" 
	d="
M89.023743,211.968781 
	C89.339569,212.080170 89.596916,212.270599 89.909882,212.754242 
	C90.023987,212.968445 89.999733,212.998642 89.984489,213.011139 
	C89.655540,212.909424 89.397835,212.719315 89.097931,212.225998 
	C88.999725,211.998688 89.023743,211.968781 89.023743,211.968781 
z"/>
<path fill="#050505" opacity="1.000000" stroke="none" 
	d="
M88.019897,210.973801 
	C88.336884,211.082596 88.595222,211.271545 88.909332,211.754730 
	C89.023743,211.968781 88.999725,211.998688 88.984619,212.011047 
	C88.655663,211.909088 88.398453,211.718369 88.098892,211.225189 
	C87.999893,210.999130 88.019897,210.973801 88.019897,210.973801 
z"/>
<path fill="#050505" opacity="1.000000" stroke="none" 
	d="
M87.016281,209.978928 
	C87.334328,210.086105 87.593216,210.274536 87.906418,210.759018 
	C88.019897,210.973801 87.999893,210.999130 87.987091,211.009460 
	C87.659096,210.907364 87.401405,210.717087 87.100502,210.224304 
	C86.999802,209.999664 87.016281,209.978928 87.016281,209.978928 
z"/>
<path fill="#050505" opacity="1.000000" stroke="none" 
	d="
M86.989494,210.007965 
	C86.861649,209.865570 86.744110,209.714890 86.626572,209.564209 
	C86.716103,209.611267 86.805641,209.658325 86.955734,209.842163 
	C87.016281,209.978928 86.999802,209.999664 86.989494,210.007965 
z"/>
<path fill="#050505" opacity="1.000000" stroke="none" 
	d="
M105.001938,205.002441 
	C104.908691,205.039001 104.813507,205.073120 104.856712,205.051727 
	C104.995094,204.996216 105.000000,205.000000 105.001938,205.002441 
z"/>
<path fill="#525252" opacity="1.000000" stroke="none" 
	d="
M261.077698,339.830902 
	C256.323090,346.412964 245.900879,346.755219 243.078964,340.779510 
	C241.143860,336.681732 241.799744,332.813202 244.985413,329.889465 
	C248.217911,326.922729 252.242264,325.936523 256.447266,328.206146 
	C260.563721,330.427948 262.288666,334.617584 261.077698,339.830902 
M253.355972,341.928528 
	C254.039398,339.985718 254.965683,338.075592 255.235001,336.076996 
	C255.302063,335.579193 252.466064,334.070099 252.291855,334.257812 
	C250.871765,335.787903 249.766846,337.610504 248.386337,339.603546 
	C246.116882,337.716980 246.556091,335.124542 248.719543,333.286865 
	C249.976425,332.219208 252.559967,331.810669 254.173615,332.310211 
	C255.916656,332.849823 257.225037,334.793579 258.789062,336.183533 
	C258.230988,331.651245 255.054031,329.283020 250.643250,330.000580 
	C246.905914,330.608551 244.287643,333.934326 245.134354,337.525543 
	C246.042145,341.375763 248.247330,343.720734 253.355972,341.928528 
z"/>
<path fill="#222222" opacity="1.000000" stroke="none" 
	d="
M339.488770,330.450623 
	C338.850891,331.918671 338.456757,333.150696 338.062653,334.382751 
	C337.482910,333.792084 336.903198,333.201385 336.323456,332.610718 
	C336.157867,326.575928 338.359375,324.441498 344.409485,326.276886 
	C342.573792,327.822449 341.153168,329.018555 339.488770,330.450623 
z"/>
<path fill="#F9F9F9" opacity="1.000000" stroke="none" 
	d="
M140.888153,76.997498 
	C144.007233,76.997505 146.646484,76.997505 150.037506,76.997505 
	C147.340530,79.707680 144.948853,81.830994 142.901245,84.246048 
	C140.777802,86.750565 138.987686,89.537689 136.859604,92.465637 
	C134.941376,89.791588 133.238998,87.088264 131.200516,84.668045 
	C129.092636,82.165421 126.658394,79.937698 123.788940,76.997490 
	C129.665909,76.997490 135.037109,76.997490 140.888153,76.997498 
z"/>
<path fill="#0D0D0D" opacity="1.000000" stroke="none" 
	d="
M194.666321,116.003647 
	C193.908432,116.998848 192.798859,117.997383 191.337677,118.999725 
	C192.095596,118.004684 193.205124,117.005836 194.666321,116.003647 
z"/>
<path fill="#0D0D0D" opacity="1.000000" stroke="none" 
	d="
M95.525421,175.125977 
	C95.797043,177.779449 96.171272,180.536789 95.279625,182.794113 
	C94.964859,183.590973 90.495628,184.018509 89.777435,183.124725 
	C88.186592,181.144897 87.770340,178.221252 86.933289,175.332092 
	C87.444588,174.906265 87.897697,174.830856 88.657158,175.215332 
	C89.542130,177.677490 90.120743,179.679779 90.699356,181.682068 
	C92.092476,181.202820 93.513321,180.784073 94.846169,180.173294 
	C95.027596,180.090149 94.769051,179.046906 94.649162,177.737991 
	C93.549271,178.992371 92.899490,179.733429 91.389030,181.456039 
	C91.256172,178.655640 91.176003,176.965851 91.095833,175.276062 
	C92.440369,175.195007 93.784904,175.113968 95.525421,175.125977 
z"/>
<path fill="#4E4E4E" opacity="1.000000" stroke="none" 
	d="
M90.780426,175.085022 
	C91.176003,176.965851 91.256172,178.655640 91.389030,181.456039 
	C92.899490,179.733429 93.549271,178.992371 94.649162,177.737991 
	C94.769051,179.046906 95.027596,180.090149 94.846169,180.173294 
	C93.513321,180.784073 92.092476,181.202820 90.699356,181.682068 
	C90.120743,179.679779 89.542130,177.677490 88.990250,175.319839 
	C89.499657,174.940979 89.982346,174.917480 90.780426,175.085022 
z"/>
<path fill="#0D0D0D" opacity="1.000000" stroke="none" 
	d="
M176.721802,257.932312 
	C175.662872,259.739075 174.589523,262.393738 173.025040,262.724335 
	C171.273331,263.094513 168.211487,261.889191 167.301529,260.401794 
	C166.256943,258.694275 166.716965,255.896378 166.999954,253.631683 
	C167.110565,252.746521 168.516891,252.023270 169.671448,251.109741 
	C170.324631,251.468109 170.639435,251.942993 170.633286,252.831970 
	C169.703674,255.070602 168.613586,256.919617 168.704514,258.708618 
	C168.745438,259.513611 171.496246,261.078613 172.386932,260.722351 
	C173.581284,260.244629 174.164368,258.238647 175.009903,256.888824 
	C175.503479,257.177460 175.997070,257.466095 176.721802,257.932312 
z"/>
<path fill="#575757" opacity="1.000000" stroke="none" 
	d="
M174.870193,256.585815 
	C174.164368,258.238647 173.581284,260.244629 172.386932,260.722351 
	C171.496246,261.078613 168.745438,259.513611 168.704514,258.708618 
	C168.613586,256.919617 169.703674,255.070602 170.647064,253.124405 
	C172.231354,254.096100 173.480927,255.189453 174.870193,256.585815 
z"/>
<path fill="#222222" opacity="1.000000" stroke="none" 
	d="
M328.032593,261.537811 
	C324.313293,260.249268 323.310608,257.492859 325.096283,253.904327 
	C326.844757,250.390472 331.044708,248.791809 334.371674,250.814163 
	C336.282074,251.975433 337.484406,254.301636 338.978394,256.467529 
	C335.490265,255.721237 332.029205,254.610855 328.100677,253.350510 
	C328.100677,256.293335 328.100677,258.690643 328.032593,261.537811 
z"/>
<path fill="#050505" opacity="1.000000" stroke="none" 
	d="
M253.010406,342.090088 
	C248.247330,343.720734 246.042145,341.375763 245.134354,337.525543 
	C244.287643,333.934326 246.905914,330.608551 250.643250,330.000580 
	C255.054031,329.283020 258.230988,331.651245 258.789062,336.183533 
	C257.225037,334.793579 255.916656,332.849823 254.173615,332.310211 
	C252.559967,331.810669 249.976425,332.219208 248.719543,333.286865 
	C246.556091,335.124542 246.116882,337.716980 248.386337,339.603546 
	C249.766846,337.610504 250.871765,335.787903 252.291855,334.257812 
	C252.466064,334.070099 255.302063,335.579193 255.235001,336.076996 
	C254.965683,338.075592 254.039398,339.985718 253.010406,342.090088 
z"/>
</svg>