<svg version="1.1" id="Layer_1" xmlns="http://www.w3.org/2000/svg" xmlns:xlink="http://www.w3.org/1999/xlink" x="0px" y="0px"
	 width="100%" viewBox="0 0 1024 1024" enable-background="new 0 0 1024 1024" xml:space="preserve">
<path fill="green" opacity="1.000000" stroke="none" 
	d="
M266.000793,229.898865 
	C332.327332,229.963226 398.154022,230.031631 463.980743,230.084579 
	C468.683350,230.088364 473.352478,230.098236 477.287567,233.275055 
	C480.205078,235.630371 482.121674,238.536453 481.133026,242.377350 
	C480.120178,246.312225 476.624084,247.108688 473.244965,247.244659 
	C461.596985,247.713333 449.940674,247.980438 438.286804,248.297134 
	C412.130859,249.007950 391.960785,260.203705 378.227112,282.619354 
	C375.517273,287.042206 373.513672,291.798340 372.285431,296.855560 
	C370.655426,303.566895 370.739288,303.686310 377.489014,303.690430 
	C405.153168,303.707336 432.818115,303.838104 460.481079,303.661255 
	C472.196167,303.586365 484.008209,304.145844 495.138550,307.139160 
	C503.679626,309.436127 510.619080,316.082916 515.709656,323.739899 
	C520.358337,330.732269 522.997314,338.704651 525.653320,346.589355 
	C531.283142,363.302063 541.025757,377.943939 548.996033,393.471924 
	C557.743103,410.513275 566.841980,427.374084 575.801392,444.306274 
	C576.344543,445.332733 576.923645,446.360931 577.630127,447.277222 
	C637.621826,525.088562 713.751892,579.098694 809.389587,604.280334 
	C828.885681,609.413757 848.655884,613.075195 868.768555,614.785889 
	C878.122375,615.581482 881.316101,619.102051 881.322571,628.630615 
	C881.341309,656.461365 881.332886,684.292175 881.285217,712.122864 
	C881.259033,727.401978 875.189209,733.686523 859.876770,734.132446 
	C851.716553,734.370056 843.546387,734.314270 835.380737,734.313049 
	C637.232056,734.283325 439.083405,734.291809 240.934830,734.125793 
	C222.145035,734.110046 203.702408,731.540527 187.162827,721.442078 
	C164.525955,707.620789 153.218170,686.948792 150.675323,661.014282 
	C148.067657,634.418579 150.136459,607.759460 149.651596,581.135986 
	C149.217804,557.316711 150.910492,533.526184 150.640793,509.736633 
	C150.100357,462.064209 164.483307,418.392029 184.333878,375.897644 
	C192.071503,359.333588 198.402313,342.118256 205.714722,325.348175 
	C213.919113,306.532471 219.264099,302.975372 239.728531,303.889221 
	C248.216141,304.268250 256.646149,303.511932 265.085297,303.917542 
	C284.064026,304.829773 303.049408,304.701447 322.035797,304.562195 
	C330.847229,304.497559 339.639709,303.570099 348.991089,304.245056 
	C348.767426,294.908081 345.157806,287.149200 340.450134,279.931976 
	C326.950806,259.236542 307.556152,249.020248 282.986755,248.332840 
	C271.500153,248.011459 260.013336,247.695740 248.527145,247.359680 
	C241.946960,247.167160 239.035889,244.885391 238.805252,239.797821 
	C238.560852,234.406693 241.337784,231.003067 247.543289,230.390350 
	C253.487396,229.803436 259.511841,230.030060 266.000793,229.898865 
M426.626801,333.983612 
	C423.470306,333.797699 420.314087,333.454010 417.157318,333.449249 
	C357.016754,333.358887 296.875793,333.198059 236.736237,333.421997 
	C230.772217,333.444183 224.946152,336.647034 222.478333,342.631836 
	C211.753616,368.640656 201.346176,394.780457 190.854889,420.885284 
	C189.356644,424.613251 188.344193,428.517242 188.877060,432.550629 
	C190.029129,441.270935 196.810547,446.641785 207.159668,446.607635 
	C224.112457,446.551697 241.061829,446.833160 258.016571,446.775116 
	C330.988037,446.525330 403.960815,446.669586 476.933136,446.668549 
	C478.432434,446.668518 479.935974,446.716644 481.430328,446.624725 
	C494.993958,445.790222 501.694946,436.161591 497.797302,423.125244 
	C497.464081,422.010712 497.064880,420.915649 496.684143,419.815735 
	C487.851929,394.300812 476.130432,369.970215 466.040924,344.971100 
	C465.028381,342.462311 463.211029,341.282837 461.017059,339.876312 
	C450.630157,333.217346 439.066406,334.032776 426.626801,333.983612 
M562.424194,486.131531 
	C560.337158,484.758118 558.958557,482.100708 555.700378,482.221954 
	C555.555420,483.636047 555.337463,484.772278 555.337219,485.908600 
	C555.329407,518.713440 555.376465,551.518311 555.316895,584.322998 
	C555.308350,589.031006 557.518005,592.252319 561.244080,594.597229 
	C570.541809,600.448486 579.869812,606.253662 589.265625,611.945251 
	C591.254883,613.150269 593.273865,615.522705 595.998901,613.552490 
	C598.576843,611.688538 598.778931,608.786865 598.752625,605.909119 
	C598.708679,601.095337 598.541870,596.281799 598.556458,591.468567 
	C598.625977,568.491333 598.702087,545.513916 598.875000,522.537415 
	C598.902466,518.885376 597.524658,516.278320 594.770142,513.942932 
	C584.102722,504.898834 573.560059,495.707703 562.424194,486.131531 
M669.639648,597.512573 
	C669.449707,589.866882 669.187744,582.221985 669.100159,574.575073 
	C669.056274,570.731506 667.522339,568.054749 664.264038,565.931091 
	C653.257874,558.757629 642.380371,551.387024 631.438599,544.114441 
	C629.948242,543.123901 628.535950,541.835938 626.530334,542.164612 
	C625.090393,543.295532 625.356873,544.882812 625.355652,546.338623 
	C625.334900,571.955200 625.390137,597.571960 625.274048,623.187988 
	C625.258972,626.523010 626.839600,627.835144 629.617493,628.886841 
	C639.877869,632.770996 650.063293,636.853210 660.309692,640.775085 
	C663.023865,641.813965 665.576172,643.544922 669.640137,643.367188 
	C669.640137,628.283264 669.640137,613.395752 669.639648,597.512573 
M426.368591,596.098206 
	C430.593781,612.191528 444.833801,622.150391 459.770630,619.458130 
	C476.018066,616.529602 487.100006,601.257202 484.469421,585.585144 
	C481.546875,568.173767 464.176270,558.188904 449.604492,561.080994 
	C437.573822,563.468628 422.822784,576.603699 426.368591,596.098206 
M203.263504,576.815247 
	C200.817535,581.332214 199.935211,586.174927 200.172577,591.273865 
	C200.728149,603.208008 206.463379,611.847961 217.167618,616.870911 
	C228.371033,622.128113 239.064133,620.373474 248.439743,612.580811 
	C257.586395,604.978577 260.555450,594.816101 258.059875,583.342896 
	C255.613586,572.096313 245.857620,563.016174 235.277863,561.350464 
	C221.582535,559.194153 210.788834,564.226257 203.263504,576.815247 
M702.312866,587.265259 
	C699.471741,586.154114 696.884644,584.185181 692.914490,584.417419 
	C692.914490,587.631775 692.900818,590.602356 692.916809,593.572754 
	C693.001953,609.395203 693.096863,625.217590 693.183655,641.040039 
	C693.227051,648.959473 695.975525,652.834412 703.665039,655.191528 
	C711.457703,657.580322 719.364624,659.600342 727.136475,662.051331 
	C730.835815,663.218018 732.035034,662.013855 732.014587,658.437988 
	C731.914429,640.950500 731.822632,623.462646 731.851196,605.975037 
	C731.857544,602.068787 730.026917,599.889954 726.618164,598.376404 
	C718.706543,594.863220 710.876526,591.166199 702.312866,587.265259 
M785.719116,650.500000 
	C785.772400,642.336914 786.025879,634.168701 785.814331,626.012451 
	C785.651123,619.719238 783.149841,617.299377 776.926880,616.163513 
	C775.627563,615.926392 774.397949,615.328369 773.105774,615.027527 
	C766.388855,613.463928 760.004517,610.561951 753.156555,609.547913 
	C752.792725,610.468750 752.456726,610.924072 752.455017,611.380493 
	C752.389160,629.332825 752.398865,647.285583 752.274048,665.237366 
	C752.250549,668.622742 754.640930,668.896606 756.870789,669.335632 
	C765.030212,670.942444 773.249573,672.263916 781.369690,674.042786 
	C784.813232,674.797180 785.949158,673.902283 785.866272,670.496094 
	C785.712219,664.166626 785.756348,657.832397 785.719116,650.500000 
M831.066345,657.500000 
	C831.095398,649.688660 831.109802,641.877258 831.165100,634.066101 
	C831.177063,632.375366 831.432373,630.367737 829.379761,629.898560 
	C821.223999,628.034363 813.020569,626.378723 804.081360,624.486267 
	C804.081360,642.190674 804.071106,658.934082 804.094727,675.677551 
	C804.097595,677.722107 805.349792,678.501160 807.299316,678.695557 
	C813.406311,679.304688 819.516663,679.916260 825.597839,680.734131 
	C829.848328,681.305664 831.266235,679.478882 831.142090,675.451416 
	C830.968079,669.805542 831.077515,664.150879 831.066345,657.500000 
M849.403137,683.563110 
	C853.869995,683.933167 858.345581,684.222290 862.801086,684.698486 
	C866.454773,685.088928 867.806519,683.734863 867.738953,679.960815 
	C867.545593,669.158691 867.683044,658.350647 867.681763,647.544983 
	C867.680420,635.671753 867.675415,635.677856 856.003296,634.118591 
	C854.524109,633.920959 853.058838,633.619690 851.586670,633.369019 
	C847.945312,632.748901 846.680298,634.019470 846.750305,637.934753 
	C846.997009,651.726624 846.852783,665.525879 846.802917,679.322144 
	C846.796753,681.025513 846.482239,682.720642 849.403137,683.563110 
M363.936615,272.406586 
	C369.804230,263.393188 377.409149,255.811020 385.303223,247.766907 
	C368.290558,247.766907 352.261017,247.766907 334.859802,247.766907 
	C345.186005,256.797455 352.786285,266.545502 359.539886,276.620209 
	C362.008362,275.587982 362.595703,274.113464 363.936615,272.406586 
z"/>
<path fill="#000000" opacity="1.000000" stroke="none" 
	d="
M217.000000,815.028442 
	C196.334976,815.035156 176.169159,814.947998 156.005539,815.119446 
	C151.408066,815.158508 149.384766,813.926453 149.570114,808.914978 
	C149.914764,799.595093 149.966385,790.240540 149.557388,780.925964 
	C149.324829,775.630005 151.374878,774.527405 156.207977,774.581299 
	C176.370499,774.805969 196.538391,774.548767 216.700897,774.774902 
	C221.327454,774.826843 222.967163,773.378723 222.726685,768.795349 
	C222.430206,763.144653 222.800522,757.461426 222.598572,751.802368 
	C222.469986,748.199768 223.688965,746.704651 227.443329,746.741150 
	C241.274200,746.875732 255.107956,746.870178 268.938873,746.735779 
	C272.439514,746.701782 273.890808,747.951782 273.421570,751.417725 
	C272.660980,757.035767 273.064850,762.667053 273.386871,768.283386 
	C273.688477,773.543945 275.892273,775.664307 280.890076,775.466736 
	C320.669891,773.894165 360.466583,774.894836 400.254700,774.753418 
	C405.266632,774.735596 407.162842,773.447144 406.801819,768.309448 
	C406.405640,762.670959 406.808044,756.980957 406.668549,751.318176 
	C406.589325,748.101318 407.936127,746.803345 411.093536,746.817810 
	C424.758728,746.880310 438.424561,746.904846 452.089600,746.835938 
	C455.314453,746.819641 456.568237,748.446533 456.779144,751.354187 
	C457.224335,757.491455 457.792023,763.623413 458.063202,769.768433 
	C458.210419,773.103821 459.871307,773.949646 462.862061,773.923767 
	C473.693756,773.829834 484.527222,773.803345 495.358673,773.902954 
	C498.592590,773.932617 499.818024,772.690674 499.727295,769.468140 
	C499.567902,763.806458 499.958160,758.119629 499.600525,752.476135 
	C499.297913,747.700256 501.280487,746.112793 505.698608,746.675476 
	C506.190613,746.738159 506.697449,746.683838 507.197418,746.683899 
	C629.020874,746.686401 750.844299,746.688232 872.667725,746.692627 
	C880.901794,746.692932 880.904968,746.701965 880.931824,754.882385 
	C880.948181,759.881836 880.857361,764.883911 880.993347,769.879944 
	C881.103577,773.930237 879.314941,775.271912 875.299622,775.469238 
	C855.650513,776.434814 835.989197,776.141846 816.333862,776.386841 
	C761.312805,777.072693 706.614624,780.951965 652.551697,791.943237 
	C615.057739,799.565918 577.455505,806.656738 539.894043,813.945862 
	C535.474854,814.803467 530.992676,815.061584 526.474365,815.060120 
	C423.482910,815.026062 320.491455,815.030884 217.000000,815.028442 
z"/>
</svg>