<?xml version="1.0" standalone="no"?>
<!DOCTYPE svg PUBLIC "-//W3C//DTD SVG 20010904//EN"
 "http://www.w3.org/TR/2001/REC-SVG-20010904/DTD/svg10.dtd">
<svg version="1.0" xmlns="http://www.w3.org/2000/svg"
 width="171.000000pt" height="100.000000pt" viewBox="0 0 171.000000 100.000000"
 preserveAspectRatio="xMidYMid meet">
<metadata>
Created by potrace 1.10, written by Peter Selinger 2001-2011
</metadata>
<g transform="translate(0.000000,100.000000) scale(0.100000,-0.100000)"
fill="#000000" stroke="none">
<path d="M271 650 c-35 -5 -65 -11 -68 -14 -3 -2 26 -7 64 -11 267 -27 509
-171 599 -355 l31 -62 28 58 c41 86 167 208 270 261 98 51 223 88 330 98 69 7
76 9 50 17 -54 16 -244 13 -315 -6 -184 -48 -313 -157 -350 -296 l-13 -45 -14
50 c-8 27 -31 73 -50 102 -96 145 -340 233 -562 203z"/>
</g>
</svg>
