<?xml version="1.0" standalone="no"?>
<!DOCTYPE svg PUBLIC "-//W3C//DTD SVG 20010904//EN"
 "http://www.w3.org/TR/2001/REC-SVG-20010904/DTD/svg10.dtd">
<svg version="1.0" xmlns="http://www.w3.org/2000/svg"
 width="200.000000pt" height="200.000000pt" viewBox="0 0 200.000000 200.000000"
 preserveAspectRatio="xMidYMid meet">

<g transform="translate(0.000000,200.000000) scale(0.100000,-0.100000)"
fill="#000000" stroke="none">
<path d="M1195 1519 c-15 -23 -61 -111 -103 -197 -74 -150 -77 -157 -77 -226
1 -142 92 -236 231 -236 91 0 193 86 210 177 16 87 1 138 -97 332 -107 213
-119 223 -164 150z m118 -201 c97 -195 104 -238 57 -316 -62 -101 -217 -96
-270 9 -29 56 -26 118 11 202 41 95 118 237 129 237 4 0 37 -60 73 -132z"/>
<path d="M596 1350 c-63 -125 -72 -179 -36 -237 73 -121 254 -68 254 74 -1 38
-13 72 -57 161 -77 151 -85 152 -161 2z m120 -64 c19 -41 34 -86 34 -101 0
-33 -42 -75 -75 -75 -32 0 -75 41 -75 72 0 21 68 178 77 178 2 0 20 -33 39
-74z"/>
<path d="M819 958 c-11 -18 -45 -83 -76 -145 -79 -158 -85 -236 -21 -308 41
-48 77 -65 136 -65 100 0 177 81 176 187 0 43 -11 74 -68 190 -92 187 -108
203 -147 141z m105 -198 c54 -112 57 -174 10 -221 -58 -57 -149 -38 -181 38
-20 49 -12 81 48 204 59 121 53 122 123 -21z"/>
</g>
</svg>
